<svg width="48" height="48" viewBox="0 0 48 48" fill="none" xmlns="http://www.w3.org/2000/svg">
<circle cx="24" cy="24" r="24" fill="white"/>
<path d="M10.6178 14.2674C10.7064 14.2688 10.7951 14.2702 10.8864 14.2716C11.1024 14.2752 11.3183 14.2803 11.5342 14.2868C11.5497 14.3368 11.5652 14.3868 11.5811 14.4384C12.159 16.3075 12.7388 18.176 13.3187 20.0445C13.4467 20.0445 13.5747 20.0445 13.7066 20.0445C13.7077 19.9834 13.7088 19.9223 13.71 19.8593C13.7158 19.5773 13.7233 19.2955 13.7308 19.0135C13.7334 18.8694 13.7334 18.8694 13.7361 18.7224C13.7693 17.5712 14.0184 16.4824 14.817 15.6095C15.4271 15.0591 16.1919 14.8372 16.999 14.812C17.2754 14.8315 17.2754 14.8315 17.5082 14.9871C17.5653 15.1237 17.5653 15.1237 17.6053 15.2914C17.6209 15.355 17.6366 15.4185 17.6527 15.484C17.6689 15.5539 17.6851 15.6238 17.7018 15.6958C17.7197 15.7693 17.7375 15.8428 17.7558 15.9186C17.8148 16.1628 17.8724 16.4072 17.93 16.6517C17.9708 16.8218 18.0117 16.9918 18.0526 17.1619C18.1605 17.6109 18.2672 18.0602 18.3738 18.5095C18.4816 18.9633 18.5904 19.4169 18.6992 19.8705C19.344 22.5623 19.344 22.5623 19.6029 23.7014C19.6188 23.3495 19.6345 22.9976 19.6502 22.6457C19.6641 22.335 19.6781 22.0243 19.6922 21.7136C19.7307 20.8618 19.7655 20.0101 19.7948 19.1579C19.8039 18.9049 19.813 18.6519 19.8222 18.399C19.828 18.2356 19.8333 18.0723 19.8383 17.909C19.8453 17.6793 19.8535 17.4497 19.8621 17.22C19.8646 17.119 19.8646 17.119 19.8672 17.0159C19.8937 16.3669 20.0577 15.8431 20.534 15.3761C21.2966 14.8772 22.097 14.8887 22.9778 14.8995C23.1785 14.9013 23.3792 14.9031 23.5799 14.9047C23.7542 14.9062 23.9285 14.9078 24.1028 14.9093C24.7169 16.7467 25.321 18.5872 25.9157 20.4311C26.0337 20.797 26.152 21.1628 26.2702 21.5286C26.3668 21.8275 26.4632 22.1264 26.5594 22.4255C26.7282 22.9503 26.8976 23.4749 27.0711 23.9982C27.1457 24.2231 27.2196 24.4481 27.2935 24.6732C27.3283 24.7786 27.3633 24.8839 27.3987 24.9892C27.4472 25.1333 27.4946 25.2778 27.5419 25.4223C27.569 25.5035 27.596 25.5848 27.6239 25.6685C27.672 25.8814 27.6687 25.9891 27.5941 26.1912C27.5289 26.1606 27.4636 26.1301 27.3964 26.0986C27.1493 25.9828 26.9022 25.8671 26.6551 25.7514C26.5491 25.7018 26.4431 25.6521 26.3371 25.6025C26.2342 25.5543 26.1312 25.5062 26.0282 25.4582C25.925 25.4096 25.8221 25.3603 25.7195 25.3103C25.474 25.1918 25.2469 25.0961 24.9839 25.0193C24.6481 24.9119 24.3642 24.8121 24.1747 24.4962C23.9991 24.1004 23.894 23.6828 23.7854 23.2645C23.7085 22.9772 23.6234 22.6928 23.5358 22.4086C23.5034 22.3033 23.4711 22.198 23.4387 22.0928C23.4223 22.0396 23.406 21.9864 23.3891 21.9316C23.3059 21.6598 23.2245 21.3875 23.1432 21.1151C23.1269 21.0605 23.1106 21.006 23.0938 20.9497C23.0606 20.8387 23.0274 20.7277 22.9943 20.6166C22.9091 20.3317 22.8237 20.0468 22.7383 19.762C22.5722 19.2078 22.4064 18.6536 22.2408 18.0993C22.1726 19.1912 22.1045 20.283 22.0364 21.3749C22.0048 21.8822 21.9731 22.3895 21.9414 22.8968C21.9108 23.3871 21.8802 23.8775 21.8497 24.3679C21.8377 24.5603 21.8257 24.7527 21.8137 24.9451C21.7574 25.8457 21.7012 26.7462 21.6482 27.647C21.6446 27.7083 21.641 27.7695 21.6373 27.8326C21.6213 28.1029 21.6056 28.3733 21.5902 28.6436C21.5635 29.1001 21.5289 29.5509 21.465 30.0037C20.5234 29.8644 19.7731 29.3108 19.2008 28.5607C17.3254 26.0042 16.7585 22.6929 16.1117 19.6554C16.056 20.1539 16.0209 20.6472 16.0123 21.1486C16.0109 21.2154 16.0095 21.2822 16.008 21.351C16.0051 21.4946 16.0022 21.6381 15.9995 21.7817C15.9952 22.0099 15.9905 22.238 15.9858 22.4661C15.9757 22.9508 15.9661 23.4355 15.9565 23.9202C15.9454 24.4816 15.9341 25.0431 15.9224 25.6045C15.9178 25.8276 15.9136 26.0507 15.9094 26.2738C15.8948 27.0011 15.8699 27.7229 15.8013 28.4476C15.4601 28.5212 15.1296 28.5421 14.7815 28.55C14.7218 28.5516 14.6621 28.5532 14.6006 28.5549C14.4109 28.5599 14.2212 28.5645 14.0315 28.5691C13.9024 28.5725 13.7733 28.5759 13.6443 28.5793C13.3289 28.5876 13.0134 28.5955 12.698 28.6032C12.633 28.3747 12.5684 28.1461 12.504 27.9175C12.4763 27.8202 12.4763 27.8202 12.448 27.721C12.4305 27.6586 12.413 27.5961 12.3949 27.5318C12.3787 27.4744 12.3624 27.4169 12.3457 27.3577C12.3101 27.2027 12.3101 27.2027 12.3101 26.9692C12.2131 26.9488 12.1161 26.9283 12.0161 26.9073C11.5814 26.8103 11.156 26.6864 10.729 26.5601C10.6473 26.5362 10.5656 26.5122 10.4815 26.4875C10.223 26.4117 9.96457 26.3355 9.70616 26.2592C9.52993 26.2075 9.3537 26.1557 9.17746 26.1039C8.7475 25.9776 8.31761 25.8511 7.88778 25.7243C7.73621 26.1594 7.60802 26.5908 7.51017 27.041C7.48447 27.1539 7.45871 27.2669 7.43289 27.3798C7.39327 27.5545 7.35408 27.7293 7.31602 27.9043C7.27857 28.0756 7.23935 28.2464 7.19983 28.4172C7.18899 28.4691 7.17814 28.5211 7.16697 28.5746C7.07897 28.9457 6.9312 29.1341 6.64644 29.3812C6.58784 29.4362 6.52923 29.4912 6.46885 29.5478C6.06952 29.9094 5.66172 30.2568 5.24357 30.5963C4.99746 30.7979 4.75494 31.0033 4.51289 31.2097C4.34491 31.3525 4.1768 31.4951 4.00859 31.6376C3.96725 31.6726 3.92591 31.7077 3.88331 31.7438C3.76542 31.8434 3.64699 31.9423 3.52854 32.0412C3.46023 32.0985 3.39193 32.1558 3.32155 32.2148C3.15517 32.3379 3.15517 32.3379 3 32.3379C3.12109 31.5209 3.34624 30.7306 3.56066 29.9347C3.60048 29.7859 3.64027 29.6371 3.68002 29.4883C3.78405 29.0992 3.88849 28.7103 3.99302 28.3214C4.09988 27.9235 4.20636 27.5254 4.31286 27.1274C4.52139 26.3484 4.73036 25.5695 4.9396 24.7907C4.89215 24.7802 4.8447 24.7697 4.79581 24.7589C4.73331 24.7451 4.6708 24.7313 4.6064 24.717C4.51362 24.6965 4.51362 24.6965 4.41898 24.6756C4.2012 24.6259 3.98612 24.5687 3.77099 24.5086C3.69808 24.4883 3.62517 24.4681 3.55006 24.4472C3.49655 24.4322 3.44305 24.4171 3.38792 24.4016C3.46153 23.9806 3.61682 23.6153 3.78554 23.2248C3.81394 23.1543 3.84234 23.0838 3.87161 23.0111C4.02053 22.6683 4.1016 22.4938 4.42863 22.2975C4.76079 22.2086 5.09113 22.1464 5.43056 22.0933C5.696 21.9606 5.71977 21.8175 5.81376 21.5461C5.90743 21.2513 5.99007 20.9542 6.06911 20.6551C6.08699 20.5883 6.10486 20.5215 6.12328 20.4527C6.16092 20.3118 6.1984 20.1709 6.23574 20.0299C6.29169 19.8188 6.34818 19.6079 6.40475 19.397C6.59196 18.6957 6.77321 17.994 6.93065 17.2853C7.16831 16.2334 7.65672 15.3547 8.54586 14.7213C9.20604 14.3048 9.85361 14.244 10.6178 14.2674ZM9.67221 17.8659C9.46062 18.5637 9.28101 19.2678 9.10973 19.9764C9.08876 20.0622 9.0678 20.148 9.0462 20.2364C9.02676 20.3177 9.00732 20.399 8.98729 20.4827C8.96977 20.5557 8.95224 20.6286 8.93418 20.7037C8.88658 20.9179 8.88658 20.9179 8.89637 21.2116C9.12431 21.1615 9.35221 21.1112 9.58008 21.0608C9.67707 21.0395 9.67707 21.0395 9.77601 21.0178C9.83827 21.004 9.90052 20.9902 9.96467 20.976C10.022 20.9634 10.0792 20.9508 10.1383 20.9377C10.3075 20.8991 10.3075 20.8991 10.5256 20.8225C10.412 20.1707 10.2349 19.5414 10.0504 18.9066C10.0212 18.8052 9.99201 18.7037 9.96285 18.6023C9.89211 18.3568 9.82109 18.1113 9.7498 17.8659C9.72419 17.8659 9.69859 17.8659 9.67221 17.8659ZM9.51704 23.3901C9.70503 23.5787 9.80205 23.5843 10.0607 23.629C10.1755 23.6493 10.1755 23.6493 10.2926 23.6701C10.4127 23.6904 10.4127 23.6904 10.5353 23.7111C10.6564 23.7323 10.6564 23.7323 10.7799 23.7539C10.9795 23.7888 11.1792 23.8232 11.3791 23.857C11.3647 23.5192 11.3647 23.5192 11.2239 23.2345C10.6462 23.2005 10.0866 23.3003 9.51704 23.3901Z" fill="#F48634"/>
<path d="M23.3102 12.007C23.3825 12.0067 23.4547 12.0064 23.5292 12.006C23.6815 12.0056 23.8339 12.0055 23.9862 12.0059C24.2186 12.0061 24.4509 12.0043 24.6833 12.0023C24.8317 12.0021 24.9801 12.0021 25.1285 12.0022C25.2322 12.0011 25.2322 12.0011 25.338 12C25.8309 12.0037 26.1641 12.0733 26.5247 12.4372C26.6862 12.6886 26.7785 12.9405 26.8633 13.2246C26.88 13.2786 26.8968 13.3325 26.9141 13.3881C26.9492 13.5016 26.9839 13.6152 27.0181 13.7289C27.0706 13.9027 27.1244 14.076 27.1785 14.2493C27.2125 14.3599 27.2464 14.4706 27.2803 14.5813C27.3043 14.6588 27.3043 14.6588 27.3288 14.7378C27.4048 14.9921 27.4391 15.1849 27.4391 15.4539C27.5258 15.4537 27.6124 15.4535 27.7017 15.4533C29.81 15.4481 31.9183 15.4442 34.0266 15.4418C35.0462 15.4406 36.0657 15.439 37.0853 15.4363C37.9739 15.434 38.8624 15.4325 39.751 15.432C40.2216 15.4316 40.6921 15.4309 41.1627 15.4292C41.6056 15.4276 42.0484 15.4272 42.4913 15.4275C42.6539 15.4274 42.8164 15.427 42.979 15.4261C43.201 15.4249 43.4229 15.4252 43.645 15.4258C43.7092 15.4252 43.7734 15.4245 43.8396 15.4238C44.2485 15.4269 44.5321 15.4957 44.8955 15.6873C45.1911 16.0036 45.2236 16.3036 45.2182 16.7302C45.1956 17.0979 45.1202 17.454 45.0464 17.8142C45.0211 17.9418 45.0211 17.9418 44.9953 18.0719C44.94 18.3503 44.8838 18.6284 44.8276 18.9066C44.7691 19.1989 44.7107 19.4913 44.6524 19.7836C44.6124 19.9841 44.5723 20.1845 44.5321 20.3849C44.3953 21.0684 44.2633 21.7527 44.1339 22.4376C44.0825 22.7076 44.0311 22.9775 43.9797 23.2474C43.9471 23.4193 43.9148 23.5912 43.8829 23.7632C43.8383 24.0029 43.7925 24.2424 43.7465 24.4819C43.7339 24.5516 43.7212 24.6214 43.7082 24.6933C43.5098 25.7095 43.5098 25.7095 43.0948 25.9999C42.8591 26.1234 42.6805 26.1611 42.4173 26.1937C42.3262 26.2054 42.2351 26.2172 42.1413 26.2293C41.9938 26.2469 41.9938 26.2469 41.8433 26.2648C41.739 26.2779 41.6346 26.2911 41.5303 26.3043C41.2577 26.3387 40.9849 26.372 40.7121 26.405C40.4581 26.4359 40.2043 26.4676 39.9504 26.4993C39.3886 26.569 38.8267 26.6372 38.2647 26.705C37.9856 26.7387 37.7065 26.7726 37.4274 26.8064C36.9025 26.8701 36.3776 26.9336 35.8526 26.9971C34.9088 27.1112 33.9651 27.2255 33.0213 27.3399C32.6913 27.3799 32.3614 27.4198 32.0314 27.4597C31.7791 27.4902 31.5268 27.5208 31.2745 27.5513C31.1844 27.5622 31.0942 27.5731 31.0013 27.5843C30.589 27.6343 30.1774 27.686 29.7666 27.7473C29.7666 27.9527 29.7666 28.1581 29.7666 28.3698C30.1104 28.5418 30.4314 28.5487 30.8076 28.5439C30.8721 28.5434 30.9367 28.543 31.0032 28.5425C31.7132 28.5322 32.4181 28.4703 33.125 28.4056C35.8388 28.1594 38.5666 27.9615 41.2927 27.9564C41.3526 27.9561 41.4125 27.9558 41.4742 27.9556C41.6401 27.9551 41.8059 27.9559 41.9718 27.9573C42.0634 27.958 42.1549 27.9587 42.2493 27.9594C42.5896 27.9895 42.803 28.069 43.0577 28.2968C43.2371 28.61 43.2633 28.8724 43.1886 29.2256C42.9811 29.5031 42.8269 29.6341 42.4904 29.6925C42.3174 29.7015 42.1443 29.7063 41.9712 29.7089C41.8621 29.7109 41.753 29.713 41.6438 29.7151C41.5854 29.7161 41.527 29.7171 41.4668 29.7182C40.2092 29.7417 38.955 29.8009 37.6995 29.8772C37.5755 29.8848 37.5755 29.8848 37.449 29.8925C36.9397 29.9236 36.4304 29.9554 35.9211 29.9875C35.2343 30.0306 34.5475 30.0727 33.8607 30.115C33.6255 30.1296 33.3904 30.1443 33.1552 30.1591C32.795 30.1817 32.4347 30.2032 32.0744 30.2243C31.8553 30.2375 31.6363 30.252 31.4173 30.2665C31.2734 30.2752 31.1294 30.2838 30.9855 30.2924C30.9211 30.297 30.8566 30.3016 30.7902 30.3064C29.972 30.352 29.3021 30.1564 28.6222 29.707C28.172 29.2681 28.0485 28.7838 28.0355 28.1704C28.038 27.5777 28.1856 27.1058 28.4477 26.5802C28.4502 25.9865 28.2743 25.4527 28.084 24.8976C28.0193 24.7023 27.9549 24.5068 27.8913 24.3111C27.8652 24.231 27.8652 24.231 27.8386 24.1494C27.5998 23.4086 27.3877 22.6597 27.1724 21.9118C26.735 20.3952 26.2873 18.8818 25.8341 17.3699C25.8187 17.3187 25.8034 17.2675 25.7876 17.2148C25.634 16.7025 25.4804 16.1903 25.3265 15.6781C25.3035 15.601 25.2805 15.5239 25.2567 15.4444C25.2118 15.2956 25.1661 15.147 25.1195 14.9987C25.0981 14.93 25.0767 14.8613 25.0547 14.7905C25.0357 14.7307 25.0167 14.6708 24.9971 14.6091C24.9564 14.4424 24.9564 14.4424 24.9564 14.1312C24.8868 14.1324 24.8172 14.1337 24.7455 14.1349C24.4846 14.1389 24.2238 14.1418 23.9629 14.144C23.8505 14.1452 23.7381 14.1468 23.6257 14.1488C22.4553 14.1694 22.4553 14.1694 21.9306 13.8978C21.6895 13.656 21.6769 13.4151 21.6591 13.0857C21.6675 12.8 21.688 12.6052 21.8627 12.3757C22.3037 12.0008 22.7584 12.0065 23.3102 12.007ZM28.1373 17.5547C28.2316 18.0271 28.3183 18.4503 28.4604 18.9023C28.4884 18.992 28.5163 19.0817 28.5451 19.1741C28.5977 19.3401 28.5977 19.3401 28.6513 19.5096C28.7633 19.8658 28.8754 20.2221 28.9908 20.5891C30.2453 20.5891 31.4998 20.5891 32.7924 20.5891C32.7924 19.5878 32.7924 18.5864 32.7924 17.5547C31.2562 17.5547 29.72 17.5547 28.1373 17.5547ZM33.8785 17.5547C33.8785 18.556 33.8785 19.5574 33.8785 20.5891C35.1587 20.5891 36.4388 20.5891 37.7577 20.5891C37.7577 19.5878 37.7577 18.5864 37.7577 17.5547C36.4776 17.5547 35.1975 17.5547 33.8785 17.5547ZM38.8439 17.5547C38.8439 18.556 38.8439 19.5574 38.8439 20.5891C39.996 20.5891 41.1482 20.5891 42.3352 20.5891C42.4248 20.1462 42.5144 19.7033 42.6067 19.247C42.6493 19.038 42.6493 19.038 42.6926 18.8247C42.7149 18.7138 42.7372 18.6029 42.7595 18.492C42.7712 18.4348 42.7829 18.3776 42.795 18.3186C42.8474 18.0563 42.8783 17.8236 42.8783 17.5547C41.5469 17.5547 40.2156 17.5547 38.8439 17.5547ZM29.3011 21.6006C29.441 22.1618 29.5815 22.7178 29.7433 23.2722C29.7619 23.3365 29.7805 23.4008 29.7997 23.4671C29.858 23.6684 29.9165 23.8697 29.9751 24.071C30.0152 24.2091 30.0552 24.3473 30.0953 24.4855C30.1924 24.8207 30.2898 25.1558 30.3873 25.4909C31.1927 25.4909 31.9937 25.362 32.7924 25.2575C32.7924 24.0507 32.7924 22.844 32.7924 21.6006C31.6403 21.6006 30.4881 21.6006 29.3011 21.6006ZM33.8785 21.6006C33.8785 22.756 33.8785 23.9115 33.8785 25.1019C34.4383 25.0551 34.99 25.0068 35.5454 24.9314C35.6024 24.9238 35.6594 24.9162 35.7182 24.9084C35.9261 24.8808 36.134 24.8527 36.3418 24.8247C36.8091 24.7621 37.2763 24.6995 37.7577 24.6351C37.7577 23.6337 37.7577 22.6323 37.7577 21.6006C36.4776 21.6006 35.1975 21.6006 33.8785 21.6006ZM38.8439 21.6006C38.8439 22.5506 38.8439 23.5006 38.8439 24.4794C39.8727 24.4241 39.8727 24.4241 40.895 24.3238C40.9507 24.3174 41.0063 24.311 41.0637 24.3044C41.3598 24.2709 41.3598 24.2709 41.6369 24.1682C41.703 23.9563 41.703 23.9563 41.7539 23.6977C41.7744 23.6014 41.7949 23.5052 41.816 23.406C41.8264 23.3555 41.8368 23.305 41.8475 23.2529C41.8791 23.0999 41.9118 22.9472 41.9445 22.7944C42.0306 22.3846 42.1024 22.0212 42.1024 21.6006C41.0271 21.6006 39.9518 21.6006 38.8439 21.6006Z" fill="#7F4631"/>
<path d="M30.7749 31.2487C31.2055 31.5668 31.4936 31.9732 31.6283 32.4936C31.6993 33.1137 31.6552 33.6174 31.2783 34.1321C30.9271 34.5634 30.5565 34.8721 29.9991 34.9834C29.2983 35.0509 28.8101 34.9147 28.2292 34.5263C27.7462 34.0557 27.5994 33.5357 27.5697 32.8778C27.6215 32.2231 27.881 31.7652 28.3698 31.3265C29.1431 30.8245 29.9682 30.796 30.7749 31.2487Z" fill="black"/>
</svg>
