<svg width="143" height="48" viewBox="0 0 143 48" fill="none" xmlns="http://www.w3.org/2000/svg">
<path d="M12.6826 9.59716C12.8214 9.59936 12.9602 9.60155 13.1031 9.60382C13.4412 9.60949 13.7791 9.61746 14.117 9.6276C14.1412 9.70589 14.1654 9.78417 14.1904 9.86483C15.095 12.7902 16.0024 15.7147 16.9099 18.6392C17.1103 18.6392 17.3106 18.6392 17.5171 18.6392C17.5188 18.5435 17.5206 18.4479 17.5224 18.3493C17.5316 17.908 17.5433 17.4668 17.555 17.0256C17.5591 16.8 17.5591 16.8 17.5633 16.5699C17.6153 14.7682 18.0051 13.064 19.255 11.6978C20.21 10.8363 21.407 10.489 22.6702 10.4496C23.1028 10.48 23.1028 10.48 23.4671 10.7236C23.5564 10.9374 23.5564 10.9374 23.6191 11.1999C23.6436 11.2994 23.6681 11.3989 23.6933 11.5014C23.7187 11.6108 23.7441 11.7202 23.7702 11.8328C23.7981 11.9479 23.826 12.063 23.8547 12.1816C23.947 12.5637 24.0372 12.9463 24.1274 13.329C24.1912 13.5952 24.2552 13.8613 24.3192 14.1275C24.4881 14.8303 24.6551 15.5335 24.8219 16.2368C24.9906 16.947 25.161 17.6569 25.3313 18.3668C26.3405 22.5799 26.3405 22.5799 26.7457 24.3627C26.7705 23.812 26.7951 23.2612 26.8197 22.7105C26.8414 22.2242 26.8633 21.7379 26.8854 21.2516C26.9456 19.9184 27.0002 18.5853 27.046 17.2516C27.0602 16.8556 27.0745 16.4596 27.0889 16.0637C27.0979 15.8081 27.1062 15.5525 27.114 15.2968C27.125 14.9373 27.1379 14.5779 27.1513 14.2185C27.1553 14.0604 27.1553 14.0604 27.1593 13.899C27.2008 12.8832 27.4574 12.0634 28.2029 11.3325C29.3965 10.5516 30.6493 10.5697 32.0279 10.5866C32.342 10.5894 32.6561 10.5921 32.9702 10.5948C33.243 10.5971 33.5158 10.5995 33.7886 10.6018C34.7498 13.4777 35.6952 16.3583 36.626 19.2442C36.8108 19.8169 36.9959 20.3895 37.1809 20.962C37.3321 21.4299 37.483 21.8977 37.6335 22.3658C37.8977 23.1873 38.1629 24.0083 38.4345 24.8273C38.5511 25.1793 38.6668 25.5315 38.7825 25.8838C38.8369 26.0488 38.8918 26.2136 38.9472 26.3783C39.023 26.6039 39.0972 26.83 39.1713 27.0562C39.2137 27.1834 39.256 27.3105 39.2996 27.4415C39.3749 27.7748 39.3697 27.9434 39.253 28.2596C39.1509 28.2118 39.0488 28.164 38.9436 28.1147C38.5569 27.9335 38.1701 27.7524 37.7833 27.5713C37.6174 27.4937 37.4515 27.416 37.2856 27.3382C37.1245 27.2628 36.9634 27.1875 36.8022 27.1124C36.6406 27.0364 36.4795 26.9592 36.319 26.8809C35.9348 26.6954 35.5792 26.5457 35.1677 26.4254C34.6421 26.2573 34.1977 26.1011 33.9012 25.6068C33.6264 24.9872 33.4618 24.3337 33.2918 23.679C33.1715 23.2292 33.0383 22.7842 32.9012 22.3393C32.8505 22.1745 32.7999 22.0098 32.7492 21.845C32.7236 21.7618 32.698 21.6786 32.6716 21.5928C32.5414 21.1674 32.414 20.7411 32.2867 20.3148C32.2611 20.2294 32.2356 20.144 32.2093 20.056C32.1574 19.8822 32.1055 19.7085 32.0536 19.5347C31.9203 19.0887 31.7866 18.6429 31.653 18.197C31.393 17.3297 31.1335 16.4623 30.8743 15.5947C30.7676 17.3036 30.661 19.0125 30.5544 20.7215C30.5049 21.5154 30.4554 22.3094 30.4058 23.1034C30.3579 23.8709 30.31 24.6384 30.2622 25.4059C30.2434 25.707 30.2246 26.0081 30.2058 26.3093C30.1178 27.7188 30.0298 29.1284 29.9469 30.5382C29.9412 30.6341 29.9356 30.7299 29.9297 30.8286C29.9048 31.2518 29.8801 31.6749 29.8561 32.098C29.8143 32.8125 29.76 33.518 29.66 34.2267C28.1864 34.0087 27.012 33.1423 26.1163 31.9682C23.1811 27.967 22.2937 22.7843 21.2814 18.0303C21.1942 18.8104 21.1393 19.5825 21.1258 20.3673C21.1236 20.4718 21.1214 20.5763 21.1192 20.684C21.1145 20.9087 21.1101 21.1335 21.1059 21.3582C21.0991 21.7153 21.0918 22.0723 21.0843 22.4294C21.0685 23.188 21.0535 23.9466 21.0385 24.7052C21.0212 25.5839 21.0035 26.4627 20.9851 27.3414C20.978 27.6905 20.9714 28.0397 20.9648 28.3889C20.9419 29.5273 20.903 30.6571 20.7957 31.7912C20.2617 31.9064 19.7443 31.9391 19.1995 31.9515C19.1061 31.954 19.0126 31.9565 18.9163 31.9591C18.6194 31.9671 18.3225 31.9743 18.0256 31.9814C17.8236 31.9867 17.6216 31.992 17.4196 31.9974C16.9259 32.0104 16.4322 32.0227 15.9385 32.0347C15.8367 31.6771 15.7356 31.3194 15.6349 30.9615C15.5915 30.8093 15.5915 30.8093 15.5472 30.654C15.5198 30.5563 15.4924 30.4586 15.4641 30.3579C15.4387 30.268 15.4133 30.1781 15.3871 30.0854C15.3313 29.8427 15.3313 29.8427 15.3313 29.4774C15.1795 29.4454 15.0277 29.4134 14.8713 29.3804C14.1909 29.2286 13.525 29.0347 12.8567 28.8371C12.7289 28.7996 12.6011 28.7621 12.4694 28.7235C12.0648 28.6047 11.6603 28.4854 11.2558 28.3662C10.98 28.2851 10.7042 28.2041 10.4284 28.1231C9.75541 27.9254 9.08258 27.7273 8.40984 27.5289C8.1726 28.2098 7.97196 28.8852 7.81882 29.5896C7.7786 29.7665 7.73828 29.9433 7.69786 30.12C7.63585 30.3935 7.57452 30.667 7.51494 30.9409C7.45634 31.209 7.39495 31.4763 7.3331 31.7436C7.31612 31.8249 7.29915 31.9062 7.28166 31.99C7.14393 32.5709 6.91264 32.8657 6.46696 33.2525C6.37523 33.3385 6.28351 33.4245 6.189 33.5132C5.564 34.0792 4.92573 34.6229 4.27127 35.1543C3.88607 35.4698 3.5065 35.7912 3.12764 36.1143C2.86474 36.3378 2.60163 36.561 2.33835 36.784C2.27365 36.8389 2.20894 36.8937 2.14227 36.9502C1.95775 37.1061 1.7724 37.261 1.58701 37.4158C1.4801 37.5054 1.37318 37.595 1.26303 37.6874C1.00263 37.88 1.00263 37.88 0.759766 37.88C0.949288 36.6014 1.30169 35.3645 1.63728 34.1187C1.6996 33.8859 1.76187 33.653 1.8241 33.4201C1.98691 32.8111 2.15038 32.2024 2.31398 31.5937C2.48124 30.9709 2.64788 30.3479 2.81458 29.725C3.14096 28.5057 3.46802 27.2866 3.79551 26.0676C3.72124 26.0512 3.64698 26.0348 3.57047 26.018C3.47264 25.9963 3.3748 25.9746 3.27401 25.9523C3.1288 25.9202 3.1288 25.9202 2.98066 25.8875C2.63982 25.8097 2.30318 25.7202 1.96647 25.6262C1.85236 25.5944 1.73825 25.5627 1.62068 25.5301C1.53694 25.5065 1.4532 25.483 1.36691 25.4587C1.48212 24.7998 1.72518 24.228 1.98924 23.6168C2.0337 23.5065 2.07815 23.3961 2.12395 23.2824C2.35703 22.7457 2.48392 22.4727 2.99578 22.1655C3.51565 22.0263 4.03267 21.929 4.56393 21.8458C4.97939 21.6381 5.01659 21.4142 5.16369 20.9895C5.3103 20.5279 5.43965 20.063 5.56335 19.5948C5.59133 19.4903 5.61931 19.3858 5.64814 19.2781C5.70704 19.0576 5.76571 18.837 5.82415 18.6164C5.91173 18.286 6.00014 17.9558 6.08868 17.6257C6.38169 16.5281 6.66537 15.4299 6.91178 14.3207C7.28375 12.6743 8.04819 11.299 9.43983 10.3076C10.4731 9.65578 11.4866 9.56062 12.6826 9.59716ZM11.2027 15.2294C10.8715 16.3215 10.5904 17.4235 10.3224 18.5326C10.2895 18.6669 10.2567 18.8012 10.2229 18.9395C10.1925 19.0668 10.1621 19.194 10.1307 19.3251C10.1033 19.4393 10.0759 19.5534 10.0476 19.671C9.97309 20.0062 9.97309 20.0062 9.98842 20.4658C10.3452 20.3874 10.7019 20.3087 11.0585 20.2299C11.2103 20.1966 11.2103 20.1966 11.3652 20.1626C11.4626 20.141 11.5601 20.1194 11.6605 20.0972C11.7501 20.0774 11.8398 20.0576 11.9322 20.0373C12.197 19.9768 12.197 19.9768 12.5384 19.8569C12.3606 18.8367 12.0834 17.8517 11.7947 16.8582C11.749 16.6994 11.7033 16.5407 11.6576 16.382C11.5469 15.9977 11.4357 15.6135 11.3241 15.2294C11.2841 15.2294 11.244 15.2294 11.2027 15.2294ZM10.9599 23.8756C11.2541 24.1707 11.4059 24.1795 11.8108 24.2495C11.9904 24.2813 11.9904 24.2813 12.1737 24.3137C12.3618 24.3455 12.3618 24.3455 12.5536 24.3779C12.7431 24.4111 12.7431 24.4111 12.9364 24.445C13.2489 24.4996 13.5614 24.5533 13.8742 24.6063C13.8518 24.0775 13.8518 24.0775 13.6313 23.632C12.7271 23.5787 11.8513 23.735 10.9599 23.8756Z" fill="#F48634"/>
<path d="M18.1242 22.9015C18.4533 23.947 18.7759 24.9941 19.0881 26.0448C19.3317 26.864 19.5818 27.6808 19.8394 28.4956C19.8846 28.639 19.8846 28.639 19.9307 28.7853C20.0665 29.2155 20.2033 29.6453 20.3422 30.0745C20.4089 30.2838 20.4089 30.2838 20.4769 30.4973C20.5154 30.6163 20.5539 30.7353 20.5936 30.8579C20.6743 31.1826 20.6899 31.4581 20.6742 31.7912C20.1955 31.9453 19.7091 31.9403 19.2114 31.9515C19.1177 31.9541 19.0241 31.9566 18.9276 31.9592C18.6295 31.9672 18.3313 31.9743 18.0331 31.9815C17.8306 31.9868 17.6281 31.9921 17.4255 31.9974C16.9298 32.0105 16.4342 32.0228 15.9385 32.0348C15.8367 31.6772 15.7356 31.3195 15.6349 30.9616C15.6059 30.8601 15.577 30.7587 15.5472 30.6541C15.5198 30.5564 15.4924 30.4586 15.4641 30.358C15.4387 30.268 15.4133 30.1781 15.3871 30.0855C15.3313 29.8428 15.3313 29.8428 15.3313 29.4775C15.1795 29.4455 15.0277 29.4135 14.8713 29.3805C14.1909 29.2286 13.525 29.0348 12.8567 28.8372C12.7289 28.7997 12.6011 28.7622 12.4694 28.7235C12.0648 28.6048 11.6603 28.4855 11.2558 28.3662C10.98 28.2852 10.7042 28.2042 10.4284 28.1232C9.75541 27.9255 9.08258 27.7274 8.40984 27.529C8.1726 28.2099 7.97196 28.8852 7.81882 29.5897C7.7786 29.7665 7.73828 29.9433 7.69786 30.1201C7.63585 30.3935 7.57452 30.667 7.51494 30.941C7.45634 31.2091 7.39495 31.4763 7.3331 31.7437C7.31612 31.825 7.29915 31.9063 7.28166 31.9901C7.14393 32.571 6.91264 32.8658 6.46696 33.2526C6.37523 33.3386 6.28351 33.4246 6.189 33.5133C5.564 34.0793 4.92573 34.623 4.27127 35.1544C3.88607 35.4698 3.5065 35.7913 3.12764 36.1143C2.86474 36.3378 2.60163 36.5611 2.33835 36.7841C2.24129 36.8664 2.24129 36.8664 2.14227 36.9503C1.95775 37.1062 1.7724 37.261 1.58701 37.4158C1.4801 37.5055 1.37318 37.5951 1.26303 37.6875C1.00263 37.8801 1.00263 37.8801 0.759766 37.8801C0.949288 36.6015 1.30169 35.3646 1.63728 34.1188C1.6996 33.8859 1.76187 33.653 1.8241 33.4201C1.98691 32.8112 2.15038 32.2025 2.31398 31.5938C2.48124 30.971 2.64788 30.348 2.81458 29.7251C3.14096 28.5058 3.46802 27.2867 3.79551 26.0677C3.72124 26.0513 3.64698 26.0349 3.57047 26.018C3.47264 25.9964 3.3748 25.9747 3.27401 25.9524C3.1772 25.931 3.0804 25.9096 2.98066 25.8875C2.63982 25.8098 2.30318 25.7203 1.96647 25.6262C1.85236 25.5945 1.73825 25.5628 1.62068 25.5301C1.53694 25.5066 1.4532 25.4831 1.36691 25.4588C1.40699 25.2579 1.44706 25.0569 1.48834 24.8499C1.52842 24.9303 1.56849 25.0106 1.60977 25.0935C3.61028 24.8852 5.59697 24.6067 7.5826 24.2867C9.1008 24.0436 9.1008 24.0436 9.86699 23.9975C9.9606 23.9896 10.0542 23.9818 10.1506 23.9737C11.2868 23.9211 12.8439 24.0897 13.8742 24.6063C13.754 24.2447 13.6337 23.883 13.5099 23.5103C14.4124 23.318 15.3111 23.1801 16.2269 23.0689C16.3563 23.0526 16.4858 23.0363 16.6191 23.0194C17.1267 22.9567 17.6121 22.9015 18.1242 22.9015Z" fill="#363434"/>
<path d="M12.6826 9.59723C12.8214 9.59942 12.9601 9.60162 13.1031 9.60389C13.4412 9.60956 13.779 9.61752 14.117 9.62767C14.1412 9.70595 14.1654 9.78424 14.1903 9.86489C14.2667 10.1118 14.3431 10.3587 14.4194 10.6055C14.5128 10.9074 14.606 11.2094 14.6992 11.5113C14.9792 12.4183 15.2615 13.3245 15.5469 14.2298C15.7045 14.7299 15.8614 15.2303 16.0182 15.7306C16.0967 15.9805 16.1755 16.2302 16.2547 16.4798C16.3667 16.8332 16.4776 17.187 16.5883 17.5408C16.6226 17.6483 16.657 17.7557 16.6924 17.8664C16.7229 17.9648 16.7535 18.0632 16.7849 18.1646C16.8121 18.2507 16.8393 18.3369 16.8673 18.4257C16.9099 18.6392 16.9099 18.6392 16.7884 18.8828C16.519 18.9725 16.2452 19.0491 15.9702 19.1197C15.888 19.141 15.8058 19.1622 15.721 19.1842C15.5467 19.229 15.3722 19.2734 15.1977 19.3174C14.9311 19.3846 14.665 19.4535 14.399 19.5226C13.0934 19.857 13.0934 19.857 12.5384 19.857C12.5023 19.7285 12.4661 19.6 12.4289 19.4677C12.2951 18.9926 12.1608 18.5176 12.0263 18.0427C11.9681 17.8368 11.91 17.6309 11.8521 17.425C11.769 17.1296 11.6853 16.8343 11.6016 16.539C11.5757 16.4464 11.5497 16.3538 11.523 16.2584C11.4285 15.8312 11.4285 15.8312 11.2027 15.473C11.1703 15.6223 11.138 15.7717 11.1047 15.9255C10.9837 16.4799 10.8578 17.0331 10.7306 17.5861C10.6762 17.8255 10.6231 18.0652 10.5713 18.3051C10.4966 18.6503 10.4173 18.9941 10.337 19.338C10.3148 19.4453 10.2927 19.5527 10.2698 19.6633C10.1993 19.954 10.1287 20.2018 9.98838 20.4659C9.59359 20.7052 9.59359 20.7052 9.13838 20.8312C9.00303 20.8707 8.86769 20.9102 8.72825 20.951C8.58904 20.9848 8.44982 21.0186 8.30639 21.0534C8.15299 21.0907 7.99959 21.1279 7.84154 21.1664C7.76285 21.185 7.68415 21.2037 7.60307 21.223C7.36195 21.2804 7.12125 21.3394 6.88054 21.3985C5.59112 21.7085 5.59112 21.7085 5.00977 21.6837C5.04641 21.544 5.08306 21.4044 5.12082 21.2605C5.26039 20.7285 5.39975 20.1965 5.53903 19.6644C5.60097 19.4279 5.66295 19.1914 5.72498 18.9548C6.04927 17.718 6.37093 16.4813 6.66911 15.2378C7.17685 13.1264 7.82368 11.3271 9.74552 10.1148C10.7223 9.63675 11.609 9.56443 12.6826 9.59723Z" fill="#373434"/>
<path d="M18.1241 22.9015C18.4532 23.947 18.7757 24.9941 19.0879 26.0448C19.3316 26.864 19.5816 27.6808 19.8393 28.4956C19.8694 28.5912 19.8996 28.6868 19.9306 28.7853C20.0664 29.2155 20.2031 29.6453 20.3421 30.0745C20.3865 30.214 20.431 30.3536 20.4768 30.4973C20.5153 30.6163 20.5538 30.7353 20.5935 30.8579C20.6742 31.1826 20.6898 31.4581 20.6741 31.7912C20.1953 31.9453 19.709 31.9403 19.2113 31.9515C19.1176 31.9541 19.024 31.9566 18.9275 31.9592C18.6293 31.9672 18.3312 31.9743 18.033 31.9815C17.8305 31.9868 17.6279 31.9921 17.4254 31.9974C16.9297 32.0105 16.4341 32.0228 15.9384 32.0348C15.6322 30.9532 15.3307 29.8735 15.0808 28.7772C14.9026 27.9965 14.6985 27.2273 14.4731 26.4587C14.3681 26.0963 14.272 25.7327 14.1776 25.3675C14.0056 24.7261 13.767 24.1214 13.5098 23.5103C14.4107 23.3142 15.3118 23.1801 16.2268 23.0689C16.3562 23.0526 16.4857 23.0363 16.619 23.0194C17.1265 22.9567 17.612 22.9015 18.1241 22.9015Z" fill="#383534"/>
<path d="M32.549 6.05935C32.6622 6.05883 32.7753 6.05831 32.8919 6.05777C33.1303 6.05707 33.3687 6.05701 33.6071 6.05754C33.9708 6.05792 34.3345 6.05506 34.6982 6.05198C34.9305 6.0517 35.1628 6.05161 35.395 6.05174C35.5573 6.05006 35.5573 6.05006 35.7228 6.04834C36.4943 6.05407 37.0158 6.16303 37.5802 6.73267C37.833 7.12614 37.9774 7.52039 38.1101 7.96498C38.1364 8.04946 38.1627 8.13394 38.1897 8.22098C38.2446 8.39856 38.2989 8.57634 38.3525 8.75431C38.4346 9.02631 38.5188 9.29756 38.6034 9.56879C38.6567 9.74198 38.7098 9.91521 38.7628 10.0885C38.8004 10.2097 38.8004 10.2097 38.8387 10.3334C38.9577 10.7313 39.0114 11.0331 39.0114 11.4542C39.147 11.4539 39.2826 11.4535 39.4224 11.4532C42.7222 11.4451 46.022 11.4391 49.3217 11.4353C50.9175 11.4334 52.5132 11.4308 54.109 11.4266C55.4998 11.423 56.8905 11.4206 58.2813 11.4198C59.0178 11.4194 59.7542 11.4182 60.4907 11.4156C61.1839 11.4131 61.8771 11.4123 62.5703 11.4129C62.8247 11.4128 63.0791 11.4121 63.3334 11.4107C63.6809 11.4088 64.0284 11.4093 64.3758 11.4103C64.4764 11.4092 64.5769 11.4081 64.6805 11.407C65.3204 11.412 65.7643 11.5196 66.333 11.8195C66.7957 12.3145 66.8466 12.7841 66.8383 13.4518C66.8028 14.0273 66.6848 14.5845 66.5693 15.1484C66.5297 15.3481 66.5297 15.3481 66.4894 15.5518C66.4028 15.9874 66.3148 16.4228 66.2268 16.8581C66.1352 17.3156 66.0439 17.7732 65.9526 18.2308C65.89 18.5446 65.8273 18.8582 65.7644 19.1719C65.5503 20.2417 65.3436 21.3127 65.141 22.3847C65.0606 22.8072 64.9802 23.2297 64.8997 23.6522C64.8487 23.9212 64.7982 24.1902 64.7482 24.4594C64.6784 24.8346 64.6068 25.2094 64.5348 25.5842C64.515 25.6934 64.4952 25.8026 64.4748 25.9151C64.1643 27.5057 64.1643 27.5057 63.5148 27.9601C63.1459 28.1535 62.8663 28.2124 62.4544 28.2635C62.3118 28.2819 62.1692 28.3002 62.0223 28.3192C61.7915 28.3467 61.7915 28.3467 61.556 28.3748C61.3927 28.3953 61.2294 28.4159 61.0661 28.4366C60.6394 28.4904 60.2125 28.5425 59.7854 28.5942C59.388 28.6425 58.9907 28.6922 58.5933 28.7418C57.7141 28.8509 56.8346 28.9576 55.9549 29.0637C55.5181 29.1164 55.0813 29.1695 54.6444 29.2225C53.8229 29.3221 53.0013 29.4215 52.1798 29.5209C50.7026 29.6995 49.2254 29.8784 47.7483 30.0575C47.2319 30.1201 46.7154 30.1826 46.199 30.245C45.8041 30.2927 45.4092 30.3405 45.0143 30.3884C44.8732 30.4054 44.7321 30.4224 44.5867 30.4399C43.9414 30.5182 43.2972 30.5992 42.6542 30.6951C42.6542 31.0166 42.6542 31.3381 42.6542 31.6693C43.1924 31.9386 43.6948 31.9494 44.2836 31.9419C44.3846 31.9412 44.4856 31.9404 44.5896 31.9397C45.701 31.9235 46.8043 31.8268 47.9105 31.7255C52.1581 31.34 56.4275 31.0304 60.6941 31.0224C60.7879 31.0219 60.8817 31.0215 60.9783 31.021C61.238 31.0204 61.4975 31.0216 61.7571 31.0238C61.9004 31.0248 62.0438 31.0259 62.1914 31.027C62.7241 31.0742 63.058 31.1985 63.4567 31.5551C63.7375 32.0454 63.7784 32.456 63.6616 33.0089C63.3368 33.4432 63.0954 33.6483 62.5687 33.7395C62.2981 33.7536 62.0271 33.7613 61.7562 33.7652C61.5854 33.7684 61.4146 33.7716 61.2438 33.7749C61.1523 33.7765 61.0609 33.7781 60.9667 33.7798C58.9984 33.8167 57.0353 33.9093 55.0704 34.0288C54.8763 34.0406 54.8763 34.0406 54.6783 34.0526C53.8811 34.1013 53.084 34.1511 52.2869 34.2013C51.212 34.2688 50.1371 34.3347 49.0621 34.4009C48.694 34.4237 48.326 34.4468 47.9579 34.4699C47.3941 34.5053 46.8303 34.539 46.2663 34.5719C45.9234 34.5926 45.5806 34.6153 45.2378 34.638C45.0126 34.6516 44.7873 34.6651 44.562 34.6786C44.4611 34.6858 44.3603 34.693 44.2563 34.7004C42.9757 34.7719 41.9273 34.4657 40.8632 33.7624C40.1585 33.0754 39.9652 32.3173 39.9448 31.3573C39.9487 30.4297 40.1798 29.691 40.5899 28.8684C40.594 27.9392 40.3186 27.1037 40.0207 26.235C39.9195 25.9292 39.8187 25.6232 39.7191 25.3169C39.6783 25.1916 39.6783 25.1916 39.6367 25.0638C39.2629 23.9044 38.931 22.7323 38.5939 21.5618C37.9094 19.188 37.2087 16.8194 36.4993 14.453C36.4753 14.3729 36.4513 14.2927 36.4265 14.2102C36.1862 13.4084 35.9457 12.6067 35.7049 11.8051C35.6689 11.6844 35.6328 11.5637 35.5956 11.4393C35.5253 11.2064 35.4537 10.9738 35.3808 10.7417C35.3473 10.6342 35.3139 10.5267 35.2794 10.4159C35.2497 10.3222 35.2199 10.2285 35.1893 10.1319C35.1256 9.87109 35.1256 9.87109 35.1256 9.38398C35.0167 9.38589 34.9077 9.3878 34.7955 9.38978C34.3872 9.39604 33.979 9.4006 33.5707 9.40405C33.3947 9.40587 33.2188 9.40836 33.0429 9.41154C31.2111 9.44382 31.2111 9.44382 30.3898 9.01865C30.0125 8.64019 29.9927 8.26314 29.9648 7.74759C29.9781 7.30053 30.0101 6.99562 30.2836 6.63637C30.9738 6.04952 31.6855 6.05846 32.549 6.05935ZM40.1042 14.7422C40.2517 15.4816 40.3874 16.144 40.6099 16.8514C40.6536 16.9918 40.6974 17.1321 40.7425 17.2768C40.8248 17.5367 40.8248 17.5367 40.9087 17.8019C41.084 18.3595 41.2593 18.917 41.4399 19.4915C43.4035 19.4915 45.367 19.4915 47.39 19.4915C47.39 17.9243 47.39 16.357 47.39 14.7422C44.9857 14.7422 42.5814 14.7422 40.1042 14.7422ZM49.09 14.7422C49.09 16.3095 49.09 17.8768 49.09 19.4915C51.0936 19.4915 53.0972 19.4915 55.1615 19.4915C55.1615 17.9243 55.1615 16.357 55.1615 14.7422C53.1579 14.7422 51.1543 14.7422 49.09 14.7422ZM56.8615 14.7422C56.8615 16.3095 56.8615 17.8768 56.8615 19.4915C58.6648 19.4915 60.468 19.4915 62.3259 19.4915C62.4661 18.7983 62.6064 18.1051 62.7509 17.3909C62.8174 17.0637 62.8174 17.0637 62.8853 16.73C62.9202 16.5564 62.9551 16.3828 62.9899 16.2092C63.0083 16.1197 63.0266 16.0302 63.0455 15.9379C63.1275 15.5274 63.1759 15.1631 63.1759 14.7422C61.0921 14.7422 59.0084 14.7422 56.8615 14.7422ZM41.9257 21.0746C42.1446 21.953 42.3645 22.8232 42.6177 23.691C42.6469 23.7916 42.676 23.8923 42.706 23.996C42.7973 24.3111 42.8889 24.6261 42.9806 24.9411C43.0433 25.1574 43.106 25.3736 43.1687 25.5899C43.3207 26.1146 43.4731 26.6391 43.6257 27.1635C44.8863 27.1635 46.14 26.9617 47.39 26.7982C47.39 24.9094 47.39 23.0207 47.39 21.0746C45.5868 21.0746 43.7835 21.0746 41.9257 21.0746ZM49.09 21.0746C49.09 22.883 49.09 24.6914 49.09 26.5546C49.9662 26.4814 50.8297 26.4059 51.6989 26.2878C51.7881 26.2759 51.8773 26.2641 51.9693 26.2519C52.2947 26.2086 52.6201 26.1647 52.9454 26.1208C53.6767 26.0229 54.408 25.9249 55.1615 25.824C55.1615 24.2567 55.1615 22.6894 55.1615 21.0746C53.1579 21.0746 51.1543 21.0746 49.09 21.0746ZM56.8615 21.0746C56.8615 22.5616 56.8615 24.0485 56.8615 25.5804C58.4718 25.4939 58.4718 25.4939 60.0718 25.3369C60.1589 25.3268 60.246 25.3168 60.3358 25.3064C60.7992 25.254 60.7992 25.254 61.233 25.0933C61.3364 24.7617 61.3364 24.7617 61.4161 24.3569C61.4482 24.2062 61.4803 24.0555 61.5133 23.9003C61.5296 23.8212 61.5458 23.7422 61.5626 23.6608C61.612 23.4213 61.6632 23.1822 61.7144 22.9432C61.8491 22.3017 61.9616 21.733 61.9616 21.0746C60.2786 21.0746 58.5955 21.0746 56.8615 21.0746Z" fill="#7F4631"/>
<path d="M44.2314 36.1753C44.9054 36.6732 45.3563 37.3093 45.5671 38.1238C45.6782 39.0942 45.6092 39.8826 45.0193 40.6882C44.4697 41.3633 43.8895 41.8463 43.0171 42.0207C41.9204 42.1263 41.1562 41.9131 40.247 41.3052C39.491 40.5687 39.2612 39.7547 39.2148 38.7251C39.2959 37.7004 39.702 36.9837 40.4671 36.2971C41.6774 35.5113 42.9687 35.4667 44.2314 36.1753Z" fill="black"/>
<path d="M61.3999 35.9976C62.1669 36.4258 62.75 37.1544 63.0046 37.9988C63.2076 39.0225 62.9867 39.9028 62.4259 40.7812C61.9294 41.4209 61.2885 41.8421 60.5034 42.0204C59.4086 42.1332 58.6579 41.9053 57.7409 41.3201C57.0357 40.6129 56.7216 39.8883 56.7012 38.8922C56.7066 38.142 56.797 37.6404 57.2248 37.0275C57.3263 36.8655 57.3263 36.8655 57.4298 36.7002C58.5412 35.5856 59.9773 35.4257 61.3999 35.9976Z" fill="black"/>
<path d="M12.6601 24.2409C12.7842 24.2617 12.9083 24.2826 13.0362 24.3041C13.902 24.4814 13.902 24.4814 14.1517 24.8135C14.2512 25.069 14.31 25.311 14.3601 25.5804C14.4013 25.7341 14.4424 25.8878 14.4849 26.0461C14.5213 26.2014 14.5578 26.3566 14.5954 26.5166C14.7799 27.2884 14.9968 28.0435 15.2424 28.7985C15.3315 29.112 15.3315 29.112 15.3315 29.4773C14.4941 29.3008 13.6776 29.0797 12.8569 28.837C12.7291 28.7995 12.6013 28.762 12.4696 28.7234C12.065 28.6046 11.6605 28.4854 11.2561 28.3661C10.9802 28.285 10.7044 28.204 10.4286 28.123C9.75563 27.9253 9.08279 27.7273 8.41005 27.5289C8.30517 27.0574 8.29671 26.7465 8.40957 26.2745C8.43736 26.1555 8.46514 26.0366 8.49377 25.9141C8.52374 25.7914 8.55372 25.6688 8.5846 25.5424C8.61411 25.4173 8.64361 25.2923 8.67401 25.1635C8.74682 24.8557 8.82077 24.5482 8.89577 24.2409C8.81562 24.2007 8.73548 24.1605 8.65291 24.1191C8.82735 24.0978 9.00194 24.0778 9.17657 24.0582C9.27378 24.0469 9.37098 24.0356 9.47113 24.0239C10.5678 23.9502 11.5828 24.0203 12.6601 24.2409Z" fill="#7F4631"/>
<path d="M134.036 14.5919C135.291 15.2878 135.815 17.1324 136.374 18.3804C136.46 18.5707 136.546 18.761 136.632 18.9513C136.841 19.4132 137.049 19.8755 137.256 20.338C137.417 20.6948 137.577 21.0515 137.738 21.4082C137.98 21.9461 138.221 22.4844 138.461 23.0231C138.501 23.0231 138.541 23.0231 138.583 23.0231C138.582 22.9269 138.582 22.8306 138.581 22.7314C138.576 21.823 138.572 20.9146 138.57 20.0061C138.569 19.5391 138.567 19.0722 138.564 18.6052C138.562 18.1543 138.56 17.7034 138.56 17.2526C138.559 17.0808 138.558 16.9089 138.557 16.7371C138.555 16.4961 138.555 16.255 138.555 16.0139C138.555 15.8768 138.554 15.7397 138.553 15.5985C138.583 15.2209 138.653 14.9564 138.826 14.6205C139.184 14.4406 139.512 14.4732 139.911 14.4683C140.062 14.4651 140.214 14.462 140.369 14.4587C140.768 14.4987 140.768 14.4987 140.997 14.6604C141.301 15.1155 141.27 15.5478 141.272 16.0787C141.272 16.1647 141.273 16.2507 141.273 16.3393C141.274 16.6241 141.274 16.9088 141.275 17.1935C141.275 17.3921 141.275 17.5907 141.276 17.7893C141.276 18.2063 141.277 18.6232 141.277 19.0402C141.277 19.5718 141.278 20.1034 141.28 20.6349C141.282 21.0456 141.282 21.4563 141.282 21.8671C141.282 22.0628 141.283 22.2586 141.284 22.4544C141.295 25.11 141.295 25.11 140.708 25.8316C140.199 26.2272 139.792 26.2195 139.167 26.2274C139.032 26.2327 139.032 26.2327 138.894 26.2381C138.25 26.2455 137.736 26.1484 137.247 25.7023C136.27 24.5495 135.755 22.9775 135.16 21.6075C135.051 21.3588 134.942 21.1102 134.833 20.8616C134.588 20.3026 134.343 19.7432 134.1 19.1832C134.01 18.978 133.919 18.7734 133.826 18.5694C133.782 18.471 133.737 18.3726 133.691 18.2712C133.651 18.1837 133.611 18.0962 133.57 18.006C133.483 17.7867 133.483 17.7867 133.483 17.5431C133.402 17.5431 133.322 17.5431 133.24 17.5431C133.241 17.6461 133.241 17.749 133.242 17.8551C133.25 18.8245 133.255 19.7939 133.259 20.7633C133.261 21.2617 133.263 21.7601 133.267 22.2585C133.271 22.7394 133.273 23.2202 133.274 23.7011C133.275 23.8847 133.276 24.0682 133.278 24.2518C133.281 24.5087 133.281 24.7655 133.281 25.0224C133.282 25.1687 133.283 25.315 133.284 25.4657C133.24 25.824 133.24 25.824 133.081 26.0538C132.738 26.2801 132.362 26.2418 131.965 26.235C131.883 26.2364 131.8 26.2379 131.716 26.2393C131.393 26.2374 131.128 26.2352 130.849 26.0627C130.602 25.6926 130.639 25.3095 130.643 24.8794C130.642 24.7833 130.641 24.6873 130.641 24.5883C130.639 24.2701 130.64 23.9521 130.641 23.6339C130.641 23.4126 130.641 23.1913 130.64 22.97C130.64 22.5056 130.641 22.0413 130.642 21.5769C130.644 20.983 130.643 20.3892 130.641 19.7953C130.64 19.3379 130.64 18.8805 130.641 18.4231C130.641 18.2043 130.641 17.9854 130.64 17.7665C130.639 17.4596 130.641 17.1528 130.643 16.8459C130.642 16.7562 130.641 16.6664 130.64 16.574C130.648 15.9493 130.773 15.5317 131.054 14.9858C131.793 14.2909 133.104 14.3118 134.036 14.5919Z" fill="#363434"/>
<path d="M93.7162 14.4666C93.8008 14.4663 93.8853 14.4661 93.9725 14.4659C94.1504 14.4657 94.3284 14.4661 94.5064 14.4672C94.7744 14.4685 95.0424 14.4672 95.3104 14.4656C96.6581 14.4642 97.9416 14.5061 99.1179 15.2296C99.2256 15.2949 99.3333 15.3602 99.4443 15.4275C100.176 16.1808 100.391 16.9564 100.393 17.9848C100.37 19.0017 100.282 19.7122 99.5277 20.4432C99.0523 20.8667 98.5017 21.0168 97.9036 21.1967C97.9556 21.2869 98.0076 21.377 98.0612 21.4699C98.257 21.8097 98.4528 22.1494 98.6485 22.4892C98.7326 22.6353 98.8168 22.7814 98.9011 22.9275C99.1027 23.2772 99.3038 23.6273 99.5037 23.978C99.641 24.2168 99.7807 24.4542 99.9241 24.6893C99.9807 24.7839 100.037 24.8786 100.096 24.9761C100.145 25.0558 100.194 25.1356 100.245 25.2178C100.362 25.5397 100.306 25.7439 100.211 26.0678C99.9385 26.3409 99.324 26.2236 98.9585 26.2276C98.8531 26.2312 98.7477 26.2347 98.6391 26.2383C98.5371 26.2394 98.4351 26.2404 98.33 26.2414C98.2367 26.2432 98.1434 26.245 98.0472 26.2468C97.6648 26.1642 97.5418 26.007 97.2965 25.7025C97.1195 25.3984 96.9555 25.0979 96.7975 24.7844C96.7523 24.6964 96.7072 24.6085 96.6607 24.5179C96.566 24.3329 96.4717 24.1476 96.3779 23.9621C96.2338 23.6775 96.0881 23.3937 95.9422 23.1099C95.8503 22.9298 95.7584 22.7497 95.6667 22.5695C95.623 22.4844 95.5794 22.3993 95.5344 22.3116C95.2322 21.712 95.2322 21.712 95.2322 21.4402C94.7112 21.4402 94.1903 21.4402 93.6536 21.4402C93.6549 21.5588 93.6561 21.6773 93.6574 21.7995C93.6618 22.2409 93.6646 22.6823 93.6669 23.1238C93.6681 23.3145 93.6698 23.5053 93.6719 23.696C93.6749 23.9708 93.6762 24.2456 93.6773 24.5204C93.6786 24.6051 93.6798 24.6899 93.6811 24.7772C93.6812 25.2601 93.6394 25.639 93.4107 26.0678C93.0442 26.2516 92.6665 26.217 92.2647 26.22C92.182 26.2225 92.0993 26.225 92.014 26.2276C91.415 26.2323 91.415 26.2323 91.1406 26.0614C90.8991 25.7 90.9314 25.3335 90.935 24.9132C90.9344 24.8207 90.9337 24.7281 90.9331 24.6328C90.9315 24.3265 90.9325 24.0203 90.9337 23.7141C90.9335 23.5009 90.9331 23.2878 90.9327 23.0747C90.9322 22.6275 90.9329 22.1804 90.9346 21.7332C90.9367 21.1614 90.9355 20.5897 90.9333 20.0179C90.932 19.5775 90.9324 19.137 90.9334 18.6966C90.9336 18.4858 90.9333 18.2751 90.9325 18.0644C90.9315 17.7689 90.933 17.4734 90.935 17.1779C90.9343 17.0916 90.9335 17.0053 90.9328 16.9163C90.9424 16.1495 91.141 15.6089 91.6196 15.0089C92.2475 14.508 92.9353 14.4679 93.7162 14.4666ZM93.6536 16.9345C93.6199 17.1942 93.6199 17.1942 93.6299 17.491C93.6306 17.6001 93.6314 17.7092 93.6322 17.8216C93.6343 17.9358 93.6363 18.0499 93.6384 18.1675C93.6395 18.2825 93.6406 18.3976 93.6417 18.5161C93.6446 18.8008 93.6486 19.0854 93.6536 19.37C94.0811 19.3771 94.5086 19.3814 94.9362 19.3852C95.0565 19.3873 95.1768 19.3893 95.3007 19.3914C96.0912 19.3967 96.7971 19.3958 97.4634 18.921C97.7347 18.5339 97.7741 18.2583 97.7822 17.7869C97.6364 17.3395 97.5148 17.1235 97.1281 16.855C96.5029 16.6212 95.9239 16.6426 95.2625 16.6529C95.1346 16.6525 95.0068 16.6521 94.875 16.6517C94.1969 16.611 94.1969 16.611 93.6536 16.9345Z" fill="#363434"/>
<path d="M125.469 14.864C126.602 15.9576 126.938 17.7923 127.373 19.2508C127.424 19.4213 127.475 19.5917 127.526 19.7621C127.632 20.1159 127.738 20.4698 127.843 20.8238C127.977 21.2759 128.114 21.7273 128.251 22.1786C128.357 22.5288 128.461 22.8796 128.565 23.2304C128.615 23.3971 128.665 23.5636 128.716 23.73C128.787 23.9622 128.855 24.1951 128.923 24.428C128.983 24.6257 128.983 24.6257 129.043 24.8274C129.122 25.2748 129.083 25.6245 128.99 26.0675C128.733 26.3256 128.212 26.2342 127.86 26.2426C127.766 26.2482 127.672 26.2537 127.575 26.2595C127.301 26.2649 127.07 26.2571 126.805 26.1893C126.369 25.7199 126.212 25.2024 126.046 24.591C126.005 24.445 125.964 24.299 125.922 24.1486C125.833 23.7538 125.833 23.7538 125.833 23.2667C124.19 23.2667 122.547 23.2667 120.855 23.2667C120.694 23.9096 120.534 24.5526 120.369 25.2151C120.005 26.0675 120.005 26.0675 119.762 26.1893C119.436 26.2044 119.116 26.2119 118.79 26.2122C118.701 26.2136 118.611 26.2151 118.519 26.2167C118.285 26.2173 118.052 26.2042 117.819 26.1893C117.576 25.9458 117.576 25.9458 117.547 25.558C117.577 25.0834 117.664 24.6905 117.798 24.2353C117.822 24.1542 117.846 24.0731 117.87 23.9895C117.948 23.7234 118.028 23.4579 118.108 23.1924C118.164 23.0058 118.219 22.8191 118.274 22.6324C118.391 22.2415 118.508 21.851 118.625 21.4606C118.775 20.9639 118.922 20.4666 119.069 19.9691C119.183 19.5832 119.298 19.1978 119.414 18.8125C119.469 18.6295 119.523 18.4464 119.577 18.2631C120.428 15.3722 120.428 15.3722 121.552 14.6309C122.733 14.061 124.396 14.0535 125.469 14.864ZM122.857 16.8192C122.511 17.2295 122.399 17.5428 122.256 18.0588C122.233 18.1414 122.209 18.224 122.185 18.3092C122.112 18.5709 122.041 18.8333 121.97 19.0958C121.92 19.2739 121.871 19.452 121.821 19.63C121.577 20.3443 121.577 20.3443 121.462 21.0747C122.664 21.0747 123.866 21.0747 125.105 21.0747C124.932 20.2087 124.746 19.3846 124.505 18.5402C124.474 18.4288 124.444 18.3174 124.412 18.2027C124.186 17.4035 124.186 17.4035 123.769 16.6907C123.338 16.4861 123.228 16.5146 122.857 16.8192Z" fill="#363434"/>
<path d="M75.5607 14.864C76.6942 15.9576 77.0293 17.7923 77.4647 19.2508C77.5158 19.4213 77.567 19.5917 77.6181 19.7621C77.7241 20.1159 77.8295 20.4698 77.9346 20.8238C78.069 21.2759 78.2055 21.7273 78.3426 22.1786C78.4485 22.5288 78.5529 22.8796 78.6569 23.2304C78.7066 23.3971 78.7569 23.5636 78.8077 23.73C78.8785 23.9622 78.9469 24.1951 79.0152 24.428C79.0743 24.6257 79.0743 24.6257 79.1347 24.8274C79.2142 25.2748 79.1744 25.6245 79.0821 26.0675C78.8248 26.3256 78.3042 26.2342 77.9513 26.2426C77.8575 26.2482 77.7637 26.2537 77.667 26.2595C77.3931 26.2649 77.162 26.2571 76.8964 26.1893C76.4609 25.7199 76.3034 25.2024 76.1375 24.591C76.0968 24.445 76.0561 24.299 76.0142 24.1486C75.925 23.7538 75.925 23.7538 75.925 23.2667C74.282 23.2667 72.6391 23.2667 70.9464 23.2667C70.7861 23.9096 70.6258 24.5526 70.4606 25.2151C70.0964 26.0675 70.0964 26.0675 69.8535 26.1893C69.5282 26.2044 69.2074 26.2119 68.8821 26.2122C68.7925 26.2136 68.703 26.2151 68.6107 26.2167C68.3772 26.2173 68.1437 26.2042 67.9106 26.1893C67.6678 25.9458 67.6678 25.9458 67.6387 25.558C67.6684 25.0834 67.7554 24.6905 67.8903 24.2353C67.914 24.1542 67.9377 24.0731 67.9621 23.9895C68.0402 23.7234 68.12 23.4579 68.2 23.1924C68.2554 23.0058 68.3109 22.8191 68.3662 22.6324C68.4825 22.2415 68.5995 21.851 68.7172 21.4606C68.8668 20.9639 69.014 20.4666 69.1605 19.9691C69.2744 19.5832 69.3898 19.1978 69.5056 18.8125C69.5604 18.6295 69.6147 18.4464 69.6685 18.2631C70.5199 15.3722 70.5199 15.3722 71.6436 14.6309C72.8251 14.061 74.4878 14.0535 75.5607 14.864ZM72.9487 16.8192C72.6027 17.2295 72.4906 17.5428 72.348 18.0588C72.3246 18.1414 72.3012 18.224 72.2771 18.3092C72.2035 18.5709 72.1327 18.8333 72.062 19.0958C72.0123 19.2739 71.9624 19.452 71.9123 19.63C71.6688 20.3443 71.6688 20.3443 71.5535 21.0747C72.7557 21.0747 73.9578 21.0747 75.1964 21.0747C75.0237 20.2087 74.8375 19.3846 74.5968 18.5402C74.5662 18.4288 74.5356 18.3174 74.5041 18.2027C74.2781 17.4035 74.2781 17.4035 73.8607 16.6907C73.43 16.4861 73.3196 16.5146 72.9487 16.8192Z" fill="#363434"/>
<path d="M84.0558 14.4619C84.2629 14.4612 84.2629 14.4612 84.4743 14.4604C84.7649 14.4597 85.0556 14.4596 85.3462 14.4601C85.7921 14.4605 86.2378 14.4576 86.6836 14.4546C86.9663 14.4543 87.249 14.4542 87.5317 14.4543C87.6653 14.4532 87.7989 14.4521 87.9365 14.4509C88.122 14.4521 88.122 14.4521 88.3112 14.4532C88.42 14.4531 88.5288 14.4531 88.6409 14.453C88.9762 14.508 89.0839 14.5917 89.283 14.8639C89.3314 15.2064 89.3314 15.2064 89.3285 15.5946C89.3299 15.7867 89.3299 15.7867 89.3314 15.9827C89.2763 16.3728 89.2205 16.4534 88.9187 16.6906C88.5506 16.728 88.2061 16.7443 87.8377 16.7443C87.7315 16.7459 87.6254 16.7475 87.516 16.7492C87.1766 16.7542 86.8372 16.7568 86.4977 16.7591C86.1587 16.762 85.8197 16.7654 85.4806 16.7702C85.2697 16.7732 85.0587 16.775 84.8478 16.7756C84.7517 16.7768 84.6557 16.778 84.5567 16.7793C84.4726 16.7798 84.3885 16.7804 84.3019 16.7809C84.0079 16.806 84.0079 16.806 83.5758 17.0559C83.5357 17.7793 83.4956 18.5026 83.4544 19.2479C83.7906 19.2422 84.1268 19.2366 84.4732 19.2308C84.7992 19.227 85.1251 19.224 85.451 19.2211C85.6774 19.2187 85.9038 19.2154 86.1301 19.2112C86.4557 19.2052 86.7811 19.2025 87.1067 19.2003C87.2078 19.1978 87.3089 19.1953 87.413 19.1927C88.1148 19.1924 88.1148 19.1924 88.4969 19.4739C88.7247 19.8063 88.7371 20.0117 88.729 20.4124C88.7288 20.5281 88.7287 20.6438 88.7285 20.763C88.6758 21.0746 88.6758 21.0746 88.5207 21.291C88.0193 21.6479 87.4123 21.5776 86.8221 21.5736C86.7258 21.5734 86.6295 21.5732 86.5302 21.573C86.2234 21.5724 85.9166 21.5708 85.6097 21.5693C85.4013 21.5687 85.193 21.5681 84.9846 21.5676C84.4745 21.5663 83.9644 21.5642 83.4544 21.5617C83.4556 21.6765 83.4569 21.7914 83.4582 21.9097C83.4624 22.3375 83.4654 22.7653 83.4677 23.1932C83.4689 23.378 83.4706 23.5629 83.4727 23.7477C83.4756 24.014 83.477 24.2803 83.4781 24.5467C83.4793 24.7067 83.4806 24.8668 83.4819 25.0317C83.4556 25.439 83.4014 25.709 83.2115 26.0675C82.845 26.2513 82.4673 26.2166 82.0655 26.2197C81.9828 26.2222 81.9001 26.2247 81.8148 26.2273C81.2158 26.232 81.2158 26.232 80.9414 26.061C80.6999 25.6997 80.7322 25.3332 80.7358 24.9128C80.7351 24.8203 80.7345 24.7278 80.7338 24.6325C80.7322 24.3262 80.7333 24.02 80.7345 23.7137C80.7343 23.5006 80.7339 23.2875 80.7335 23.0743C80.7329 22.6272 80.7337 22.18 80.7354 21.7329C80.7375 21.1611 80.7363 20.5894 80.7341 20.0176C80.7328 19.5771 80.7332 19.1367 80.7342 18.6962C80.7344 18.4855 80.7341 18.2748 80.7333 18.0641C80.7323 17.7685 80.7338 17.4731 80.7358 17.1776C80.735 17.0912 80.7343 17.0049 80.7335 16.916C80.7432 16.1491 80.9417 15.6086 81.4204 15.0085C82.1961 14.3897 83.1081 14.4611 84.0558 14.4619Z" fill="#363434"/>
<path d="M115.997 14.7422C116.365 15.1005 116.382 15.4128 116.399 15.9067C116.397 16.3122 116.336 16.5886 116.119 16.9342C115.759 17.0683 115.517 17.0568 115.137 16.9989C114.593 16.9249 114.063 16.9027 113.515 16.8962C113.417 16.8927 113.319 16.8891 113.218 16.8855C112.369 16.8766 111.724 17.0974 111.102 17.6877C110.596 18.5336 110.474 19.371 110.487 20.344C110.486 20.4461 110.484 20.5481 110.483 20.6532C110.487 21.5249 110.639 22.3629 111.178 23.0688C111.952 23.8273 112.768 23.8588 113.811 23.8756C114.14 23.8512 114.457 23.8021 114.783 23.7538C114.998 23.7363 115.213 23.7238 115.428 23.7157C115.528 23.7112 115.627 23.7066 115.73 23.7019C115.997 23.7538 115.997 23.7538 116.212 23.966C116.458 24.419 116.423 24.8348 116.361 25.3369C116.248 25.687 116.248 25.687 115.997 25.9458C114.439 26.7016 112.376 26.6126 110.776 26.0676C110.07 25.7314 109.465 25.3261 108.954 24.728C108.895 24.6596 108.835 24.5911 108.774 24.5206C107.475 22.9313 107.524 20.9534 107.619 19.0045C107.785 17.6314 108.404 16.3844 109.415 15.4387C111.172 14.0662 113.974 13.8531 115.997 14.7422Z" fill="#363434"/>
<path d="M71.5844 29.0132C72.1009 29.3546 72.277 29.7569 72.4132 30.3479C72.4535 30.5454 72.4926 30.7432 72.5307 30.9411C72.5517 31.0457 72.5728 31.1503 72.5945 31.258C72.6611 31.5903 72.7261 31.9229 72.7911 32.2555C72.8361 32.4815 72.8813 32.7076 72.9265 32.9336C73.0369 33.4862 73.1459 34.0391 73.2541 34.5921C73.2941 34.5921 73.3342 34.5921 73.3755 34.5921C73.3987 34.4687 73.4219 34.3454 73.4458 34.2182C73.5332 33.7557 73.6223 33.2934 73.712 32.8313C73.7503 32.6321 73.7883 32.4329 73.8257 32.2336C74.3382 29.5082 74.3382 29.5082 75.0527 28.9827C75.6751 28.7991 76.1221 28.8209 76.7452 28.9979C77.2247 29.2846 77.3456 29.5719 77.5041 30.0863C77.583 30.4678 77.6296 30.85 77.6725 31.237C77.6854 31.3459 77.6984 31.4547 77.7118 31.5669C77.7388 31.7964 77.7652 32.0259 77.791 32.2556C77.8301 32.6026 77.8715 32.9493 77.9132 33.2961C78.1972 35.7118 78.1972 35.7118 78.1112 36.6623C77.9898 36.7841 77.9898 36.7841 77.6592 36.796C77.4585 36.7939 77.4585 36.7939 77.2536 36.7917C77.1195 36.7906 76.9854 36.7895 76.8471 36.7884C76.7434 36.787 76.6396 36.7856 76.5327 36.7841C76.3231 36.1256 76.2245 35.4965 76.1598 34.8095C76.1494 34.7053 76.139 34.6011 76.1282 34.4937C76.0953 34.1638 76.0635 33.8338 76.0318 33.5037C76.0095 33.2788 75.9872 33.0539 75.9649 32.8289C75.9105 32.2801 75.857 31.7313 75.8041 31.1823C75.6037 31.955 75.4182 32.7288 75.2576 33.5109C75.2276 33.6572 75.1975 33.8036 75.1666 33.9544C75.1052 34.2559 75.0445 34.5575 74.9844 34.8592C74.9544 35.0045 74.9243 35.1498 74.8934 35.2995C74.8671 35.4298 74.8408 35.5602 74.8137 35.6945C74.706 36.0716 74.5779 36.3462 74.3469 36.6623C73.9828 36.7841 73.7115 36.8122 73.33 36.8222C73.1595 36.829 73.1595 36.829 72.9856 36.836C72.5355 36.767 72.352 36.6274 72.0398 36.297C71.8956 35.9302 71.8956 35.9302 71.7969 35.4826C71.7784 35.4011 71.7599 35.3197 71.7408 35.2357C71.6752 34.9406 71.6143 34.6448 71.554 34.3485C71.5277 34.2202 71.5013 34.0918 71.4741 33.9596C71.2933 33.0754 71.1181 32.1902 70.9469 31.3041C70.9068 31.3041 70.8667 31.3041 70.8255 31.3041C70.812 31.4441 70.7986 31.5842 70.7847 31.7285C70.7344 32.2501 70.683 32.7716 70.6313 33.2931C70.6091 33.5184 70.5872 33.7438 70.5656 33.9692C70.5344 34.2939 70.5022 34.6185 70.4697 34.9432C70.4603 35.0433 70.451 35.1434 70.4413 35.2465C70.3858 35.7902 70.2939 36.2696 70.0969 36.7841C69.8566 36.7874 69.6162 36.7897 69.3759 36.7917C69.2421 36.7931 69.1082 36.7945 68.9703 36.796C68.6397 36.7841 68.6397 36.7841 68.5183 36.6623C68.4069 35.4308 68.6108 34.1735 68.7577 32.9524C68.7992 32.6044 68.8385 32.2562 68.8776 31.908C68.904 31.6843 68.9304 31.4607 68.9571 31.237C68.9685 31.1341 68.9799 31.0312 68.9916 30.9252C69.0691 30.3011 69.1932 29.7914 69.4897 29.2339C70.1919 28.8141 70.8153 28.7313 71.5844 29.0132Z" fill="#363434"/>
<path d="M138.826 28.9597C138.946 28.9572 139.067 28.9546 139.191 28.9521C140.125 28.9472 141.282 28.9766 141.998 29.6599C142.451 30.266 142.423 30.9396 142.347 31.6692C142.185 32.105 141.948 32.4353 141.619 32.7652C141.788 32.8669 141.788 32.8669 141.96 32.9707C142.358 33.2603 142.502 33.4239 142.712 33.8612C142.76 34.2456 142.76 34.2456 142.757 34.6528C142.759 34.8543 142.759 34.8543 142.76 35.06C142.69 35.6192 142.472 35.9321 142.074 36.3196C141.227 36.8796 140.281 36.8255 139.303 36.8223C139.053 36.8219 138.804 36.8248 138.554 36.8279C138.395 36.828 138.237 36.8281 138.074 36.8281C137.929 36.8285 137.785 36.8289 137.637 36.8292C137.188 36.777 136.981 36.7174 136.64 36.4186C136.248 35.746 136.223 35.0473 136.232 34.287C136.232 34.1795 136.232 34.0721 136.231 33.9615C136.232 33.7358 136.233 33.5101 136.235 33.2845C136.238 32.9408 136.237 32.5973 136.237 32.2536C136.237 32.0333 136.238 31.813 136.239 31.5926C136.239 31.4909 136.239 31.3891 136.239 31.2843C136.246 30.6782 136.308 30.1695 136.519 29.599C137.225 28.9091 137.896 28.9644 138.826 28.9597ZM138.097 30.5732C138.088 30.8395 138.087 31.106 138.09 31.3724C138.091 31.5182 138.092 31.6641 138.093 31.8143C138.094 31.9272 138.096 32.04 138.097 32.1563C139.276 32.2023 139.276 32.2023 140.404 31.9128C140.69 31.5604 140.69 31.5604 140.632 31.1136C140.573 30.6997 140.573 30.6997 140.335 30.5485C139.926 30.4138 139.532 30.4209 139.107 30.4286C139.023 30.4287 138.939 30.4288 138.853 30.4289C138.44 30.3972 138.44 30.3972 138.097 30.5732ZM138.097 33.6177C138.091 33.8764 138.086 34.1352 138.082 34.394C138.079 34.5381 138.076 34.6822 138.074 34.8307C138.057 35.2144 138.057 35.2144 138.34 35.4443C139.209 35.5313 140.152 35.5956 140.89 35.079C141.052 34.7324 141.052 34.7324 141.012 34.3483C140.876 34.0027 140.876 34.0027 140.647 33.7394C140.311 33.6272 140.115 33.6033 139.769 33.6058C139.623 33.6064 139.623 33.6064 139.474 33.607C139.322 33.6085 139.322 33.6085 139.167 33.6101C139.013 33.6109 139.013 33.6109 138.856 33.6117C138.603 33.6132 138.35 33.6153 138.097 33.6177Z" fill="#363434"/>
<path d="M90.0267 28.9675C90.1491 28.966 90.2715 28.9645 90.3976 28.9629C91.5239 28.9607 92.5666 29.0229 93.4115 29.8427C93.9013 30.4924 93.8646 31.2549 93.7758 32.0347C93.6469 32.5372 93.4769 32.8831 93.0416 33.1764C92.8039 33.2981 92.5689 33.4035 92.3187 33.4961C92.459 33.8988 92.6431 34.2586 92.8551 34.6268C92.9097 34.7215 92.9642 34.8163 93.0204 34.9139C93.135 35.1113 93.2504 35.3083 93.3667 35.5047C93.4208 35.5993 93.4749 35.6939 93.5306 35.7913C93.5806 35.8767 93.6305 35.9621 93.682 36.0501C93.7947 36.3467 93.7598 36.4902 93.6544 36.7841C93.3842 36.8105 93.1133 36.8293 92.8423 36.845C92.6916 36.8563 92.5409 36.8676 92.3855 36.8792C91.9103 36.7744 91.8752 36.7469 91.628 36.3612C91.5303 36.1796 91.4368 35.9956 91.3472 35.8099C91.3032 35.72 91.2592 35.6302 91.2138 35.5376C90.8562 34.7952 90.8562 34.7952 90.6986 34.4387C90.4619 33.9294 90.4619 33.9294 90.0023 33.6516C89.7039 33.6079 89.7039 33.6079 89.2829 33.6179C89.2836 33.7051 89.2842 33.7924 89.2849 33.8823C89.2874 34.2762 89.289 34.6701 89.2905 35.064C89.2915 35.2013 89.2925 35.3387 89.2936 35.4802C89.294 35.6113 89.2944 35.7424 89.2948 35.8774C89.2954 35.9986 89.2961 36.1197 89.2967 36.2446C89.2829 36.5405 89.2829 36.5405 89.1615 36.7841C88.9238 36.7939 88.6859 36.801 88.4481 36.8069C88.2495 36.8133 88.2495 36.8133 88.0468 36.8198C87.9338 36.808 87.8208 36.7962 87.7043 36.7841C87.4447 36.3935 87.4309 36.292 87.4301 35.843C87.4293 35.7263 87.4285 35.6097 87.4277 35.4894C87.4282 35.3635 87.4287 35.2375 87.4292 35.1077C87.429 34.9778 87.4288 34.8479 87.4285 34.7141C87.4284 34.4389 87.4288 34.1637 87.4298 33.8886C87.4311 33.469 87.4298 33.0494 87.4283 32.6298C87.4284 32.3623 87.4287 32.0948 87.4292 31.8273C87.4287 31.7024 87.4282 31.5774 87.4277 31.4486C87.432 30.7864 87.4654 30.2199 87.7043 29.5992C88.4157 28.9041 89.0903 28.968 90.0267 28.9675ZM89.2829 30.6952C89.2533 31.0761 89.2533 31.0761 89.2677 31.502C89.2699 31.6467 89.2721 31.7914 89.2744 31.9406C89.2772 32.052 89.28 32.1635 89.2829 32.2783C90.6112 32.3506 90.6112 32.3506 91.8329 31.913C92.0007 31.7712 92.0007 31.7712 91.9847 31.3802C91.992 30.9545 91.992 30.9545 91.8026 30.7104C91.3371 30.4103 90.8407 30.4319 90.2999 30.4288C90.0909 30.4262 90.0909 30.4262 89.8777 30.4236C89.5103 30.4145 89.5103 30.4145 89.2829 30.6952Z" fill="#363434"/>
<path d="M120.125 28.9675C120.233 28.9658 120.34 28.9641 120.451 28.9623C120.732 28.9904 120.732 28.9904 120.975 29.2339C121.003 29.5187 121.003 29.5187 120.999 29.8704C120.998 29.9835 120.998 30.0966 120.997 30.2132C120.994 30.4292 120.994 30.4292 120.99 30.6496C120.985 31.1067 120.98 31.5638 120.975 32.0348C122.137 32.0348 123.299 32.0348 124.497 32.0348C124.487 31.124 124.487 31.124 124.475 30.2132C124.474 30.1001 124.473 29.9869 124.473 29.8704C124.471 29.6963 124.471 29.6963 124.469 29.5187C124.497 29.2339 124.497 29.2339 124.739 28.9904C125.02 28.958 125.02 28.958 125.347 28.9599C125.454 28.9593 125.562 28.9587 125.673 28.958C125.954 28.9904 125.954 28.9904 126.197 29.2339C126.227 29.5444 126.227 29.5444 126.226 29.9415C126.227 30.164 126.227 30.164 126.227 30.391C126.226 30.5534 126.226 30.7159 126.225 30.8784C126.224 31.0443 126.224 31.2102 126.224 31.3761C126.224 31.7239 126.223 32.0716 126.222 32.4194C126.22 32.866 126.219 33.3127 126.219 33.7593C126.219 34.1019 126.218 34.4444 126.218 34.787C126.217 34.9517 126.217 35.1165 126.217 35.2812C126.217 35.511 126.215 35.7407 126.214 35.9705C126.214 36.1669 126.214 36.1669 126.213 36.3673C126.197 36.6624 126.197 36.6624 126.075 36.7841C125.833 36.7962 125.59 36.7999 125.347 36.7994C125.214 36.7997 125.081 36.8 124.944 36.8003C124.618 36.7841 124.618 36.7841 124.497 36.6624C124.486 36.4366 124.484 36.2105 124.485 35.9845C124.485 35.8612 124.485 35.7379 124.486 35.6108C124.487 35.453 124.488 35.2951 124.489 35.1325C124.491 34.6327 124.494 34.1329 124.497 33.6179C123.335 33.6179 122.172 33.6179 120.975 33.6179C120.98 34.5688 120.98 34.5688 120.986 35.5197C120.986 35.6377 120.987 35.7558 120.987 35.8775C120.988 35.9986 120.988 36.1198 120.989 36.2446C120.975 36.5406 120.975 36.5406 120.854 36.7841C120.616 36.794 120.378 36.8011 120.14 36.807C119.942 36.8133 119.942 36.8133 119.739 36.8198C119.626 36.808 119.513 36.7963 119.397 36.7841C119.122 36.371 119.123 36.23 119.124 35.7459C119.124 35.6082 119.123 35.4704 119.123 35.3285C119.124 35.1797 119.125 35.0309 119.126 34.8775C119.126 34.7249 119.126 34.5722 119.126 34.4149C119.126 34.0918 119.127 33.7687 119.129 33.4456C119.131 33.0316 119.131 32.6177 119.131 32.2037C119.131 31.8087 119.132 31.4137 119.133 31.0187C119.133 30.7955 119.133 30.7955 119.134 30.5678C119.135 30.3612 119.135 30.3612 119.136 30.1503C119.137 30.0289 119.137 29.9075 119.137 29.7825C119.154 29.4775 119.154 29.4775 119.275 29.1121C119.576 28.9613 119.79 28.97 120.125 28.9675Z" fill="#363434"/>
<path d="M83.9647 29.1777C84.6639 29.7503 84.8657 30.6055 85.1178 31.4373C85.1578 31.567 85.1978 31.6966 85.2391 31.8302C85.323 32.1035 85.4064 32.377 85.4892 32.6507C85.6161 33.069 85.7459 33.4864 85.876 33.9037C85.9574 34.1699 86.0386 34.4362 86.1196 34.7024C86.178 34.8891 86.178 34.8891 86.2376 35.0796C86.4195 35.6894 86.556 36.1528 86.3677 36.7841C86.1325 36.7972 85.8972 36.8067 85.6618 36.8145C85.5308 36.8202 85.3998 36.8258 85.2648 36.8316C85.1479 36.8159 85.031 36.8003 84.9105 36.7841C84.5462 36.297 84.5462 36.297 84.1819 34.9574C83.1401 34.9574 82.0982 34.9574 81.0247 34.9574C80.9471 35.2136 80.8695 35.4698 80.7895 35.7337C80.5542 36.5101 80.5542 36.5101 80.4176 36.7841C79.8967 36.7841 79.3757 36.7841 78.839 36.7841C78.7291 36.2327 78.7036 36.0948 78.8483 35.6C78.8958 35.4341 78.8958 35.4341 78.9443 35.2648C78.9799 35.1466 79.0154 35.0283 79.052 34.9065C79.0882 34.7832 79.1243 34.6599 79.1616 34.5329C79.2386 34.272 79.3163 34.0113 79.3947 33.7508C79.5132 33.3557 79.6284 32.9597 79.7433 32.5635C79.8188 32.3093 79.8944 32.0552 79.9703 31.8012C80.0041 31.6842 80.0379 31.5672 80.0727 31.4466C80.3555 30.5209 80.7074 29.5216 81.5408 28.9751C82.4247 28.7682 83.1442 28.7681 83.9647 29.1777ZM82.3605 30.4516C81.9352 30.9603 81.8251 31.6249 81.6698 32.2555C81.5772 32.6247 81.4845 32.9939 81.389 33.3743C82.1905 33.3743 82.9919 33.3743 83.8176 33.3743C83.7023 32.9326 83.5857 32.4912 83.4685 32.05C83.4358 31.9242 83.4031 31.7985 83.3694 31.6689C83.3373 31.5488 83.3052 31.4288 83.2721 31.305C83.2429 31.1941 83.2136 31.0831 83.1835 30.9688C83.1043 30.6751 83.1043 30.6751 82.8462 30.4516C82.6859 30.4516 82.5256 30.4516 82.3605 30.4516Z" fill="#363434"/>
<path d="M128.746 28.9676C128.854 28.9659 128.962 28.9642 129.072 28.9624C129.353 28.9905 129.353 28.9905 129.596 29.234C129.623 29.6008 129.636 29.9572 129.638 30.3243C129.64 30.4331 129.641 30.5418 129.643 30.6538C129.649 31.0026 129.653 31.3513 129.657 31.7C129.662 32.1574 129.668 32.6146 129.676 33.0719C129.676 33.1766 129.677 33.2813 129.678 33.3891C129.687 33.9523 129.717 34.438 129.96 34.9576C130.576 35.2347 131.237 35.2813 131.903 35.2011C132.397 35.012 132.58 34.9134 132.875 34.4705C132.913 34.2349 132.913 34.2349 132.912 33.9765C132.914 33.8777 132.916 33.779 132.918 33.6772C132.919 33.571 132.92 33.4648 132.921 33.3554C132.923 33.246 132.925 33.1366 132.927 33.0238C132.933 32.6739 132.938 32.324 132.943 31.974C132.948 31.6241 132.954 31.2742 132.96 30.9242C132.964 30.7065 132.968 30.4887 132.97 30.2708C132.972 30.1721 132.973 30.0733 132.975 29.9716C132.977 29.8414 132.977 29.8414 132.979 29.7086C132.996 29.4776 132.996 29.4776 133.118 29.1122C133.418 28.9614 133.632 28.9701 133.968 28.9676C134.075 28.9659 134.183 28.9642 134.294 28.9624C134.575 28.9905 134.575 28.9905 134.818 29.234C134.849 29.4594 134.849 29.4594 134.851 29.7361C134.853 29.8917 134.853 29.8917 134.854 30.0505C134.854 30.163 134.854 30.2755 134.854 30.3914C134.855 30.5074 134.855 30.6234 134.856 30.7429C134.856 30.9891 134.856 31.2353 134.856 31.4815C134.856 31.8554 134.858 32.2292 134.861 32.6031C134.862 32.8426 134.862 33.0822 134.862 33.3217C134.863 33.4325 134.864 33.5432 134.865 33.6574C134.859 34.5297 134.699 35.2778 134.248 36.0307C133.237 36.9907 131.993 36.9594 130.683 36.9393C129.762 36.9044 129.08 36.6916 128.443 36.0079C127.765 35.1088 127.756 34.0118 127.759 32.9273C127.758 32.8294 127.758 32.7314 127.758 32.6305C127.758 32.425 127.758 32.2195 127.759 32.014C127.76 31.6993 127.759 31.3845 127.758 31.0697C127.758 30.8695 127.758 30.6692 127.759 30.4689C127.758 30.3749 127.758 30.2809 127.758 30.1841C127.76 29.7946 127.772 29.4845 127.896 29.1122C128.197 28.9614 128.411 28.9701 128.746 28.9676Z" fill="#363434"/>
<path d="M104.028 14.4683C104.111 14.4658 104.194 14.4633 104.279 14.4607C104.89 14.4559 104.89 14.4559 105.152 14.6553C105.428 15.0188 105.361 15.4667 105.358 15.9058C105.359 16.0122 105.359 16.1186 105.36 16.2282C105.361 16.5803 105.36 16.9323 105.359 17.2844C105.359 17.5287 105.36 17.7731 105.36 18.0174C105.361 18.5297 105.36 19.0419 105.358 19.5542C105.356 20.2115 105.357 20.8687 105.36 21.526C105.361 22.0306 105.36 22.5351 105.359 23.0397C105.359 23.2821 105.36 23.5245 105.36 23.7669C105.361 24.1054 105.36 24.4438 105.358 24.7823C105.359 24.9332 105.359 24.9332 105.36 25.0871C105.353 25.7687 105.353 25.7687 105.154 26.032C104.804 26.2978 104.396 26.2468 103.975 26.2427C103.887 26.2451 103.799 26.2475 103.708 26.2501C103.071 26.2495 103.071 26.2495 102.796 26.0058C102.572 25.572 102.589 25.1594 102.594 24.6822C102.594 24.5795 102.593 24.4769 102.593 24.3712C102.592 24.0322 102.593 23.6933 102.595 23.3543C102.595 23.1186 102.595 22.8829 102.595 22.6472C102.595 22.1534 102.596 21.6596 102.598 21.1658C102.601 20.5327 102.601 19.8996 102.6 19.2665C102.6 18.7799 102.601 18.2933 102.602 17.8067C102.603 17.5732 102.603 17.3398 102.602 17.1063C102.602 16.7801 102.604 16.454 102.606 16.1277C102.606 16.0312 102.605 15.9346 102.605 15.8352C102.613 14.9953 102.613 14.9953 102.882 14.6205C103.249 14.4367 103.626 14.4713 104.028 14.4683Z" fill="#363434"/>
<path d="M96.0821 28.9676C96.1898 28.9659 96.2975 28.9642 96.4085 28.9624C96.6893 28.9905 96.6893 28.9905 96.9322 29.234C96.9709 29.5188 96.9709 29.5188 96.9824 29.8705C96.9871 29.9961 96.9918 30.1217 96.9967 30.2511C97.0004 30.3826 97.0042 30.5142 97.008 30.6497C97.0127 30.7822 97.0174 30.9147 97.0223 31.0512C97.0337 31.3791 97.0441 31.707 97.0536 32.0349C97.8193 31.1467 98.5808 30.2597 99.2972 29.3306C99.4822 29.1122 99.4822 29.1122 99.725 28.9905C99.9676 28.9756 100.211 28.9691 100.454 28.9676C100.584 28.9659 100.714 28.9642 100.848 28.9624C101.182 28.9905 101.182 28.9905 101.425 29.234C101.39 29.6967 101.131 29.9699 100.841 30.3148C100.695 30.4888 100.695 30.4888 100.547 30.6663C100.435 30.7979 100.323 30.9293 100.211 31.0607C100.115 31.1739 100.115 31.1739 100.017 31.2893C99.5971 31.7828 99.1759 32.2747 98.7536 32.7656C98.9534 33.2418 99.2759 33.5992 99.6112 33.9834C100.075 34.5257 100.533 35.0711 100.97 35.635C101.06 35.7507 101.151 35.8664 101.245 35.9856C101.425 36.2971 101.425 36.2971 101.393 36.5821C101.363 36.6488 101.334 36.7155 101.304 36.7842C99.8643 36.969 99.8643 36.969 99.2815 36.5559C99.0007 36.2391 98.7545 35.9127 98.5107 35.5665C98.3372 35.35 98.1626 35.1344 97.9871 34.9195C97.8376 34.7294 97.6883 34.5391 97.5393 34.3487C97.3776 34.1456 97.2157 33.9426 97.0536 33.7398C97.0505 33.8234 97.0475 33.9069 97.0444 33.993C97.0303 34.3704 97.0154 34.7477 97.0005 35.125C96.9957 35.2566 96.9909 35.3881 96.986 35.5237C96.9809 35.6492 96.9758 35.7748 96.9706 35.9042C96.9639 36.0783 96.9639 36.0783 96.9571 36.2559C96.9322 36.5407 96.9322 36.5407 96.8107 36.7842C96.573 36.7941 96.3352 36.8012 96.0973 36.8071C95.8987 36.8134 95.8987 36.8134 95.696 36.8199C95.583 36.8081 95.47 36.7964 95.3536 36.7842C95.079 36.3712 95.0805 36.2301 95.0812 35.746C95.0808 35.6083 95.0805 35.4705 95.0801 35.3286C95.081 35.1798 95.0818 35.031 95.0827 34.8777C95.0828 34.725 95.0828 34.5723 95.0829 34.415C95.0833 34.0919 95.0841 33.7688 95.0857 33.4458C95.0878 33.0318 95.0882 32.6178 95.0882 32.2038C95.0882 31.8088 95.0893 31.4138 95.0903 31.0188C95.0905 30.7956 95.0905 30.7956 95.0907 30.5679C95.0919 30.3613 95.0919 30.3613 95.0931 30.1504C95.0935 30.0291 95.094 29.9077 95.0945 29.7826C95.1107 29.4776 95.1107 29.4776 95.2321 29.1122C95.533 28.9614 95.7466 28.9701 96.0821 28.9676Z" fill="#363434"/>
<path d="M104.447 28.9697C104.54 28.9693 104.633 28.9689 104.729 28.9685C104.926 28.9679 105.123 28.9676 105.32 28.9676C105.622 28.9674 105.924 28.9651 106.226 28.9628C106.417 28.9625 106.608 28.9622 106.799 28.9621C106.89 28.9612 106.981 28.9604 107.074 28.9595C107.712 28.9623 107.712 28.9623 107.983 29.2337C108.019 29.4887 108.019 29.4887 108.021 29.7817C108.023 29.8784 108.025 29.9751 108.027 30.0748C108.012 30.1589 107.998 30.2431 107.983 30.3297C107.547 30.6209 107.356 30.6018 106.839 30.5971C106.611 30.5959 106.611 30.5959 106.378 30.5947C106.139 30.5916 106.139 30.5916 105.896 30.5885C105.734 30.5873 105.572 30.5862 105.409 30.5852C105.012 30.5823 104.616 30.578 104.219 30.5733C104.179 31.0957 104.138 31.6182 104.097 32.1564C104.322 32.1522 104.547 32.1479 104.779 32.1436C105.073 32.1401 105.367 32.1368 105.661 32.1336C105.883 32.129 105.883 32.129 106.111 32.1243C106.323 32.1225 106.323 32.1225 106.54 32.1207C106.737 32.1179 106.737 32.1179 106.937 32.1149C107.042 32.1286 107.146 32.1423 107.254 32.1564C107.535 32.579 107.538 32.7562 107.497 33.2524C107.417 33.373 107.337 33.4935 107.254 33.6177C106.937 33.6592 106.937 33.6592 106.54 33.6534C106.398 33.6522 106.257 33.6511 106.111 33.6499C105.962 33.6468 105.814 33.6437 105.661 33.6406C105.511 33.6389 105.362 33.6373 105.208 33.6356C104.837 33.6313 104.467 33.6252 104.097 33.6177C104.114 33.8588 104.132 34.0998 104.15 34.3408C104.16 34.475 104.17 34.6092 104.18 34.7475C104.183 35.0683 104.183 35.0683 104.34 35.2009C104.606 35.2172 104.873 35.2257 105.14 35.2308C105.305 35.2348 105.469 35.2389 105.634 35.243C105.894 35.2487 106.155 35.2541 106.415 35.2589C106.665 35.2637 106.916 35.27 107.167 35.2765C107.317 35.2795 107.468 35.2826 107.623 35.2857C107.983 35.3226 107.983 35.3226 108.226 35.5662C108.254 35.7945 108.254 35.7945 108.249 36.0533C108.248 36.1387 108.247 36.2241 108.246 36.3121C108.226 36.5404 108.226 36.5404 108.104 36.784C107.424 36.793 106.743 36.7996 106.063 36.804C105.831 36.8059 105.6 36.8084 105.368 36.8115C105.035 36.816 104.702 36.818 104.369 36.8196C104.266 36.8215 104.163 36.8234 104.057 36.8254C103.493 36.8255 103.07 36.8237 102.64 36.4186C102.251 35.7432 102.223 35.0494 102.232 34.287C102.232 34.1796 102.232 34.0722 102.231 33.9615C102.232 33.7359 102.233 33.5102 102.235 33.2846C102.238 32.9409 102.237 32.5974 102.237 32.2537C102.237 32.0334 102.238 31.813 102.239 31.5927C102.239 31.491 102.239 31.3892 102.239 31.2844C102.246 30.6783 102.308 30.1696 102.519 29.5991C103.121 29.0106 103.64 28.9709 104.447 28.9697Z" fill="#363434"/>
<path d="M109.339 28.9601C109.447 28.9603 109.556 28.9604 109.668 28.9606C109.791 28.9602 109.914 28.9599 110.041 28.9595C110.175 28.9603 110.308 28.9612 110.446 28.9621C110.651 28.9622 110.651 28.9622 110.86 28.9623C111.149 28.9627 111.438 28.9636 111.727 28.9651C112.171 28.9673 112.614 28.9676 113.058 28.9676C113.338 28.9682 113.619 28.9689 113.899 28.9697C114.032 28.9699 114.166 28.97 114.303 28.9701C114.488 28.9713 114.488 28.9713 114.677 28.9725C114.785 28.973 114.894 28.9734 115.006 28.9739C115.269 28.9902 115.269 28.9902 115.512 29.112C115.683 29.9859 115.683 29.9859 115.39 30.5733C114.629 30.5733 113.868 30.5733 113.083 30.5733C113.084 30.7571 113.084 30.9409 113.085 31.1303C113.087 31.8096 113.089 32.4888 113.09 33.1681C113.09 33.4626 113.091 33.7571 113.092 34.0515C113.094 34.4738 113.094 34.8961 113.095 35.3184C113.096 35.4509 113.096 35.5835 113.097 35.72C113.097 35.8419 113.097 35.9638 113.097 36.0894C113.097 36.1973 113.097 36.3052 113.098 36.4164C113.083 36.6622 113.083 36.6622 112.962 36.784C112.722 36.8024 112.481 36.811 112.241 36.8144C112.109 36.8176 111.978 36.8207 111.843 36.8239C111.731 36.8107 111.619 36.7976 111.504 36.784C111.244 36.3916 111.232 36.2916 111.234 35.8406C111.234 35.7236 111.234 35.6066 111.234 35.486C111.235 35.3601 111.237 35.2341 111.238 35.1043C111.238 34.9751 111.239 34.8458 111.239 34.7127C111.24 34.2995 111.243 33.8863 111.246 33.4731C111.248 33.1932 111.249 32.9132 111.25 32.6333C111.252 31.9466 111.257 31.26 111.262 30.5733C111.029 30.5775 111.029 30.5775 110.792 30.5819C110.589 30.5841 110.387 30.5864 110.184 30.5885C110.031 30.5916 110.031 30.5916 109.874 30.5947C109.776 30.5955 109.679 30.5963 109.578 30.5971C109.487 30.5984 109.397 30.5996 109.304 30.601C109.076 30.5733 109.076 30.5733 108.833 30.3297C108.801 30.0748 108.801 30.0748 108.803 29.7817C108.802 29.685 108.801 29.5883 108.801 29.4887C108.847 29.1195 108.971 29.0022 109.339 28.9601Z" fill="#363434"/>
<path d="M1.48862 24.8499C1.52869 24.9303 1.56876 25.0107 1.61005 25.0935C2.93242 24.9729 2.93242 24.9729 4.2815 24.8499C4.03864 25.8241 4.03864 25.8241 3.91721 26.0677C3.31147 25.9934 2.7513 25.8686 2.16407 25.6947C2.01396 25.6506 1.86384 25.6065 1.70918 25.5611C1.59632 25.5273 1.48347 25.4936 1.36719 25.4588C1.40726 25.2579 1.44733 25.0569 1.48862 24.8499Z" fill="#814730"/>
</svg>
